<svg width="461" height="370" viewBox="0 0 461 370" fill="none" xmlns="http://www.w3.org/2000/svg">
<rect x="57" width="404" height="78" fill="#F9B93F"/>
<path d="M74.3026 46H71.4901L76.6108 31.4545H79.8636L84.9915 46H82.179L78.294 34.4375H78.1804L74.3026 46ZM74.3949 40.2969H82.0653V42.4134H74.3949V40.2969ZM86.7937 50.0909V35.0909H89.3221V36.8949H89.4712C89.6038 36.6297 89.7908 36.348 90.0323 36.0497C90.2738 35.7467 90.6005 35.4886 91.0124 35.2756C91.4244 35.0578 91.9499 34.9489 92.5891 34.9489C93.4319 34.9489 94.1919 35.1643 94.869 35.5952C95.5508 36.0213 96.0906 36.6534 96.4883 37.4915C96.8907 38.3248 97.092 39.3475 97.092 40.5597C97.092 41.7576 96.8955 42.7756 96.5025 43.6136C96.1095 44.4517 95.5745 45.0909 94.8974 45.5312C94.2203 45.9716 93.4532 46.1918 92.5962 46.1918C91.9712 46.1918 91.4528 46.0876 91.0408 45.8793C90.6289 45.6709 90.2975 45.42 90.0465 45.1264C89.8003 44.8281 89.6085 44.5464 89.4712 44.2812H89.3647V50.0909H86.7937ZM89.315 40.5455C89.315 41.2509 89.4144 41.8688 89.6133 42.3991C89.8169 42.9295 90.1081 43.3437 90.4869 43.642C90.8704 43.9356 91.3344 44.0824 91.8789 44.0824C92.4471 44.0824 92.9229 43.9309 93.3065 43.6278C93.69 43.3201 93.9788 42.901 94.1729 42.3707C94.3718 41.8357 94.4712 41.2273 94.4712 40.5455C94.4712 39.8684 94.3742 39.267 94.18 38.7415C93.9859 38.2159 93.6971 37.804 93.3136 37.5057C92.93 37.2074 92.4518 37.0582 91.8789 37.0582C91.3297 37.0582 90.8633 37.2027 90.4798 37.4915C90.0962 37.7803 89.805 38.1851 89.6062 38.706C89.4121 39.2268 89.315 39.84 89.315 40.5455ZM104.123 46.2131C103.029 46.2131 102.085 45.9858 101.289 45.5312C100.499 45.072 99.8903 44.4233 99.4641 43.5852C99.038 42.7424 98.8249 41.7505 98.8249 40.6094C98.8249 39.4872 99.038 38.5024 99.4641 37.6548C99.895 36.8026 100.496 36.1397 101.268 35.6662C102.04 35.188 102.947 34.9489 103.988 34.9489C104.661 34.9489 105.295 35.0578 105.892 35.2756C106.493 35.4886 107.023 35.8201 107.483 36.2699C107.947 36.7197 108.311 37.2926 108.576 37.9886C108.842 38.6799 108.974 39.5038 108.974 40.4602V41.2486H100.032V39.5156H106.51C106.505 39.0232 106.398 38.5852 106.19 38.2017C105.982 37.8134 105.69 37.508 105.316 37.2855C104.947 37.063 104.516 36.9517 104.024 36.9517C103.498 36.9517 103.037 37.0795 102.639 37.3352C102.241 37.5862 101.931 37.9176 101.708 38.3295C101.491 38.7367 101.379 39.1842 101.375 39.6719V41.1847C101.375 41.8191 101.491 42.3636 101.723 42.8182C101.955 43.268 102.279 43.6136 102.696 43.8551C103.112 44.0919 103.6 44.2102 104.159 44.2102C104.533 44.2102 104.871 44.1581 105.174 44.054C105.477 43.9451 105.74 43.7865 105.963 43.5781C106.185 43.3698 106.353 43.1117 106.467 42.804L108.868 43.0739C108.716 43.7083 108.427 44.2623 108.001 44.7358C107.58 45.2045 107.04 45.5691 106.382 45.8295C105.724 46.0852 104.971 46.2131 104.123 46.2131ZM113.72 31.4545V46H111.149V31.4545H113.72ZM119.503 46.2202C118.812 46.2202 118.189 46.0971 117.635 45.8509C117.086 45.5999 116.65 45.2306 116.328 44.7429C116.011 44.2552 115.853 43.6539 115.853 42.9389C115.853 42.3234 115.966 41.8144 116.194 41.4119C116.421 41.0095 116.731 40.6875 117.124 40.446C117.517 40.2045 117.96 40.0223 118.452 39.8991C118.949 39.7713 119.463 39.679 119.993 39.6222C120.632 39.5559 121.151 39.4967 121.549 39.4446C121.946 39.3878 122.235 39.3026 122.415 39.1889C122.6 39.0705 122.692 38.8883 122.692 38.642V38.5994C122.692 38.0644 122.533 37.6501 122.216 37.3565C121.899 37.063 121.442 36.9162 120.846 36.9162C120.216 36.9162 119.716 37.0535 119.347 37.3281C118.982 37.6027 118.736 37.9271 118.608 38.3011L116.208 37.9602C116.397 37.2973 116.71 36.7434 117.145 36.2983C117.581 35.8485 118.114 35.5123 118.743 35.2898C119.373 35.0625 120.069 34.9489 120.831 34.9489C121.357 34.9489 121.88 35.0104 122.401 35.1335C122.922 35.2566 123.398 35.4602 123.828 35.7443C124.259 36.0237 124.605 36.4048 124.865 36.8878C125.131 37.3707 125.263 37.9744 125.263 38.6989V46H122.792V44.5014H122.706C122.55 44.8045 122.33 45.0885 122.046 45.3537C121.766 45.6141 121.414 45.8248 120.988 45.9858C120.566 46.142 120.071 46.2202 119.503 46.2202ZM120.171 44.331C120.687 44.331 121.134 44.2292 121.513 44.0256C121.892 43.8172 122.183 43.5426 122.387 43.2017C122.595 42.8608 122.699 42.4891 122.699 42.0866V40.8011C122.619 40.8674 122.481 40.929 122.287 40.9858C122.098 41.0426 121.885 41.0923 121.648 41.1349C121.411 41.1776 121.177 41.2154 120.945 41.2486C120.713 41.2817 120.512 41.3101 120.341 41.3338C119.958 41.3859 119.614 41.4711 119.311 41.5895C119.008 41.7079 118.769 41.8736 118.594 42.0866C118.419 42.295 118.331 42.5649 118.331 42.8963C118.331 43.3698 118.504 43.7273 118.85 43.9688C119.195 44.2102 119.636 44.331 120.171 44.331ZM127.848 46V35.0909H130.341V36.9091H130.455C130.654 36.2794 130.995 35.794 131.478 35.4531C131.965 35.1075 132.522 34.9347 133.147 34.9347C133.289 34.9347 133.447 34.9418 133.623 34.956C133.802 34.9654 133.952 34.982 134.07 35.0057V37.3707C133.961 37.3329 133.788 37.2997 133.551 37.2713C133.319 37.2382 133.095 37.2216 132.877 37.2216C132.408 37.2216 131.987 37.3234 131.613 37.527C131.243 37.7259 130.952 38.0028 130.739 38.358C130.526 38.7131 130.419 39.1226 130.419 39.5866V46H127.848ZM140.158 46.2131C139.065 46.2131 138.12 45.9858 137.325 45.5312C136.534 45.072 135.925 44.4233 135.499 43.5852C135.073 42.7424 134.86 41.7505 134.86 40.6094C134.86 39.4872 135.073 38.5024 135.499 37.6548C135.93 36.8026 136.531 36.1397 137.303 35.6662C138.075 35.188 138.982 34.9489 140.023 34.9489C140.696 34.9489 141.33 35.0578 141.927 35.2756C142.528 35.4886 143.058 35.8201 143.518 36.2699C143.982 36.7197 144.346 37.2926 144.612 37.9886C144.877 38.6799 145.009 39.5038 145.009 40.4602V41.2486H136.067V39.5156H142.545C142.54 39.0232 142.433 38.5852 142.225 38.2017C142.017 37.8134 141.726 37.508 141.352 37.2855C140.982 37.063 140.551 36.9517 140.059 36.9517C139.533 36.9517 139.072 37.0795 138.674 37.3352C138.276 37.5862 137.966 37.9176 137.744 38.3295C137.526 38.7367 137.415 39.1842 137.41 39.6719V41.1847C137.41 41.8191 137.526 42.3636 137.758 42.8182C137.99 43.268 138.314 43.6136 138.731 43.8551C139.147 44.0919 139.635 44.2102 140.194 44.2102C140.568 44.2102 140.906 44.1581 141.21 44.054C141.513 43.9451 141.775 43.7865 141.998 43.5781C142.22 43.3698 142.388 43.1117 142.502 42.804L144.903 43.0739C144.751 43.7083 144.462 44.2623 144.036 44.7358C143.615 45.2045 143.075 45.5691 142.417 45.8295C141.759 46.0852 141.006 46.2131 140.158 46.2131ZM154.894 31.4545V46H152.259V31.4545H154.894ZM160.205 39.608V46H157.634V35.0909H160.091V36.9446H160.219C160.47 36.3338 160.87 35.8485 161.419 35.4886C161.973 35.1288 162.657 34.9489 163.472 34.9489C164.224 34.9489 164.88 35.1098 165.439 35.4318C166.002 35.7538 166.438 36.2202 166.746 36.831C167.058 37.4418 167.212 38.1828 167.207 39.054V46H164.636V39.4517C164.636 38.7225 164.447 38.152 164.068 37.7401C163.694 37.3281 163.176 37.1222 162.513 37.1222C162.063 37.1222 161.663 37.2216 161.312 37.4205C160.967 37.6146 160.695 37.8963 160.496 38.2656C160.302 38.6349 160.205 39.0824 160.205 39.608ZM169.821 46V35.0909H172.392V46H169.821ZM171.114 33.5426C170.706 33.5426 170.356 33.4077 170.062 33.1378C169.769 32.8632 169.622 32.5341 169.622 32.1506C169.622 31.7623 169.769 31.4332 170.062 31.1634C170.356 30.8887 170.706 30.7514 171.114 30.7514C171.526 30.7514 171.876 30.8887 172.165 31.1634C172.458 31.4332 172.605 31.7623 172.605 32.1506C172.605 32.5341 172.458 32.8632 172.165 33.1378C171.876 33.4077 171.526 33.5426 171.114 33.5426ZM180.483 35.0909V37.0795H174.212V35.0909H180.483ZM175.76 32.4773H178.331V42.7188C178.331 43.0644 178.383 43.3295 178.488 43.5142C178.596 43.6941 178.739 43.8172 178.914 43.8835C179.089 43.9498 179.283 43.983 179.496 43.983C179.657 43.983 179.804 43.9711 179.936 43.9474C180.074 43.9238 180.178 43.9025 180.249 43.8835L180.682 45.8935C180.545 45.9408 180.348 45.9929 180.093 46.0497C179.842 46.1065 179.534 46.1397 179.169 46.1491C178.525 46.1681 177.945 46.071 177.429 45.858C176.913 45.6402 176.504 45.304 176.201 44.8494C175.902 44.3949 175.756 43.8267 175.76 43.1449V32.4773ZM182.634 46V35.0909H185.205V46H182.634ZM183.926 33.5426C183.519 33.5426 183.169 33.4077 182.875 33.1378C182.581 32.8632 182.435 32.5341 182.435 32.1506C182.435 31.7623 182.581 31.4332 182.875 31.1634C183.169 30.8887 183.519 30.7514 183.926 30.7514C184.338 30.7514 184.688 30.8887 184.977 31.1634C185.271 31.4332 185.418 31.7623 185.418 32.1506C185.418 32.5341 185.271 32.8632 184.977 33.1378C184.688 33.4077 184.338 33.5426 183.926 33.5426ZM190.988 46.2202C190.296 46.2202 189.674 46.0971 189.12 45.8509C188.57 45.5999 188.135 45.2306 187.813 44.7429C187.496 44.2552 187.337 43.6539 187.337 42.9389C187.337 42.3234 187.451 41.8144 187.678 41.4119C187.905 41.0095 188.215 40.6875 188.608 40.446C189.001 40.2045 189.444 40.0223 189.936 39.8991C190.434 39.7713 190.947 39.679 191.478 39.6222C192.117 39.5559 192.635 39.4967 193.033 39.4446C193.431 39.3878 193.72 39.3026 193.9 39.1889C194.084 39.0705 194.176 38.8883 194.176 38.642V38.5994C194.176 38.0644 194.018 37.6501 193.701 37.3565C193.383 37.063 192.926 36.9162 192.33 36.9162C191.7 36.9162 191.201 37.0535 190.831 37.3281C190.467 37.6027 190.221 37.9271 190.093 38.3011L187.692 37.9602C187.882 37.2973 188.194 36.7434 188.63 36.2983C189.065 35.8485 189.598 35.5123 190.228 35.2898C190.857 35.0625 191.553 34.9489 192.316 34.9489C192.841 34.9489 193.364 35.0104 193.885 35.1335C194.406 35.2566 194.882 35.4602 195.313 35.7443C195.744 36.0237 196.089 36.4048 196.35 36.8878C196.615 37.3707 196.748 37.9744 196.748 38.6989V46H194.276V44.5014H194.191C194.034 44.8045 193.814 45.0885 193.53 45.3537C193.251 45.6141 192.898 45.8248 192.472 45.9858C192.051 46.142 191.556 46.2202 190.988 46.2202ZM191.655 44.331C192.171 44.331 192.619 44.2292 192.998 44.0256C193.376 43.8172 193.667 43.5426 193.871 43.2017C194.079 42.8608 194.184 42.4891 194.184 42.0866V40.8011C194.103 40.8674 193.966 40.929 193.772 40.9858C193.582 41.0426 193.369 41.0923 193.132 41.1349C192.896 41.1776 192.661 41.2154 192.429 41.2486C192.197 41.2817 191.996 41.3101 191.826 41.3338C191.442 41.3859 191.099 41.4711 190.796 41.5895C190.493 41.7079 190.254 41.8736 190.078 42.0866C189.903 42.295 189.816 42.5649 189.816 42.8963C189.816 43.3698 189.989 43.7273 190.334 43.9688C190.68 44.2102 191.12 44.331 191.655 44.331ZM201.904 31.4545V46H199.333V31.4545H201.904ZM207.687 46.2202C206.996 46.2202 206.373 46.0971 205.819 45.8509C205.27 45.5999 204.834 45.2306 204.512 44.7429C204.195 44.2552 204.036 43.6539 204.036 42.9389C204.036 42.3234 204.15 41.8144 204.377 41.4119C204.604 41.0095 204.915 40.6875 205.308 40.446C205.701 40.2045 206.143 40.0223 206.636 39.8991C207.133 39.7713 207.647 39.679 208.177 39.6222C208.816 39.5559 209.335 39.4967 209.732 39.4446C210.13 39.3878 210.419 39.3026 210.599 39.1889C210.783 39.0705 210.876 38.8883 210.876 38.642V38.5994C210.876 38.0644 210.717 37.6501 210.4 37.3565C210.083 37.063 209.626 36.9162 209.029 36.9162C208.399 36.9162 207.9 37.0535 207.531 37.3281C207.166 37.6027 206.92 37.9271 206.792 38.3011L204.391 37.9602C204.581 37.2973 204.893 36.7434 205.329 36.2983C205.764 35.8485 206.297 35.5123 206.927 35.2898C207.557 35.0625 208.253 34.9489 209.015 34.9489C209.54 34.9489 210.064 35.0104 210.585 35.1335C211.105 35.2566 211.581 35.4602 212.012 35.7443C212.443 36.0237 212.789 36.4048 213.049 36.8878C213.314 37.3707 213.447 37.9744 213.447 38.6989V46H210.975V44.5014H210.89C210.734 44.8045 210.513 45.0885 210.229 45.3537C209.95 45.6141 209.597 45.8248 209.171 45.9858C208.75 46.142 208.255 46.2202 207.687 46.2202ZM208.354 44.331C208.871 44.331 209.318 44.2292 209.697 44.0256C210.076 43.8172 210.367 43.5426 210.57 43.2017C210.779 42.8608 210.883 42.4891 210.883 42.0866V40.8011C210.802 40.8674 210.665 40.929 210.471 40.9858C210.281 41.0426 210.068 41.0923 209.832 41.1349C209.595 41.1776 209.361 41.2154 209.129 41.2486C208.897 41.2817 208.695 41.3101 208.525 41.3338C208.141 41.3859 207.798 41.4711 207.495 41.5895C207.192 41.7079 206.953 41.8736 206.778 42.0866C206.603 42.295 206.515 42.5649 206.515 42.8963C206.515 43.3698 206.688 43.7273 207.033 43.9688C207.379 44.2102 207.819 44.331 208.354 44.331Z" fill="black"/>
<rect x="250" y="16" width="187" height="46" rx="6" fill="#3C8DBC"/>
<path d="M284.207 50.0909V35.0909H287.19V36.9233H287.325C287.458 36.6297 287.65 36.3314 287.901 36.0284C288.156 35.7206 288.488 35.465 288.895 35.2614C289.307 35.053 289.818 34.9489 290.429 34.9489C291.224 34.9489 291.958 35.1572 292.631 35.5739C293.303 35.9858 293.84 36.6084 294.243 37.4418C294.645 38.2704 294.847 39.3097 294.847 40.5597C294.847 41.7765 294.65 42.804 294.257 43.642C293.869 44.4754 293.339 45.1075 292.666 45.5384C291.999 45.9645 291.25 46.1776 290.422 46.1776C289.835 46.1776 289.335 46.0805 288.923 45.8864C288.516 45.6922 288.182 45.4484 287.922 45.1548C287.661 44.8565 287.463 44.5559 287.325 44.2528H287.233V50.0909H284.207ZM287.169 40.5455C287.169 41.1941 287.259 41.7599 287.439 42.2429C287.619 42.7259 287.879 43.1023 288.22 43.3722C288.561 43.6373 288.975 43.7699 289.463 43.7699C289.955 43.7699 290.372 43.6349 290.713 43.3651C291.054 43.0904 291.312 42.7116 291.487 42.2287C291.667 41.741 291.757 41.1799 291.757 40.5455C291.757 39.9157 291.67 39.3617 291.494 38.8835C291.319 38.4053 291.061 38.0312 290.72 37.7614C290.379 37.4915 289.96 37.3565 289.463 37.3565C288.971 37.3565 288.554 37.4867 288.213 37.7472C287.877 38.0076 287.619 38.3769 287.439 38.8551C287.259 39.3333 287.169 39.8968 287.169 40.5455ZM299.974 46.206C299.278 46.206 298.658 46.0852 298.114 45.8438C297.569 45.5975 297.138 45.2353 296.821 44.7571C296.509 44.2741 296.352 43.6728 296.352 42.9531C296.352 42.3471 296.464 41.8381 296.686 41.4261C296.909 41.0142 297.212 40.6828 297.595 40.4318C297.979 40.1809 298.414 39.9915 298.902 39.8636C299.394 39.7358 299.911 39.6458 300.45 39.5938C301.085 39.5275 301.596 39.4659 301.984 39.4091C302.373 39.3475 302.654 39.2576 302.83 39.1392C303.005 39.0208 303.092 38.8456 303.092 38.6136V38.571C303.092 38.1212 302.95 37.7732 302.666 37.527C302.387 37.2808 301.989 37.1577 301.473 37.1577C300.929 37.1577 300.495 37.2784 300.173 37.5199C299.851 37.7566 299.638 38.0549 299.534 38.4148L296.736 38.1875C296.878 37.5246 297.157 36.9517 297.574 36.4688C297.991 35.9811 298.528 35.607 299.186 35.3466C299.849 35.0814 300.616 34.9489 301.487 34.9489C302.093 34.9489 302.673 35.0199 303.227 35.1619C303.786 35.304 304.281 35.5241 304.712 35.8224C305.147 36.1207 305.491 36.5043 305.741 36.973C305.992 37.437 306.118 37.9934 306.118 38.642V46H303.249V44.4872H303.163C302.988 44.8281 302.754 45.1288 302.46 45.3892C302.167 45.6449 301.814 45.8461 301.402 45.9929C300.99 46.1349 300.514 46.206 299.974 46.206ZM300.841 44.1179C301.286 44.1179 301.679 44.0303 302.02 43.8551C302.361 43.6752 302.628 43.4337 302.822 43.1307C303.017 42.8277 303.114 42.4844 303.114 42.1009V40.9432C303.019 41.0047 302.889 41.0616 302.723 41.1136C302.562 41.161 302.38 41.206 302.176 41.2486C301.973 41.2865 301.769 41.322 301.565 41.3551C301.362 41.3835 301.177 41.4096 301.011 41.4332C300.656 41.4853 300.346 41.5682 300.081 41.6818C299.816 41.7955 299.61 41.9493 299.463 42.1435C299.316 42.3329 299.243 42.5696 299.243 42.8537C299.243 43.2656 299.392 43.5805 299.69 43.7983C299.993 44.0114 300.377 44.1179 300.841 44.1179ZM308.465 46V35.0909H311.398V36.9943H311.512C311.711 36.3172 312.045 35.8059 312.513 35.4602C312.982 35.1098 313.522 34.9347 314.133 34.9347C314.284 34.9347 314.448 34.9441 314.623 34.9631C314.798 34.982 314.952 35.008 315.085 35.0412V37.7259C314.942 37.6832 314.746 37.6454 314.495 37.6122C314.244 37.5791 314.014 37.5625 313.806 37.5625C313.361 37.5625 312.963 37.6596 312.613 37.8537C312.267 38.0431 311.993 38.3082 311.789 38.6491C311.59 38.9901 311.491 39.383 311.491 39.8281V46H308.465ZM319.447 46.206C318.751 46.206 318.131 46.0852 317.586 45.8438C317.042 45.5975 316.611 45.2353 316.294 44.7571C315.981 44.2741 315.825 43.6728 315.825 42.9531C315.825 42.3471 315.936 41.8381 316.159 41.4261C316.381 41.0142 316.684 40.6828 317.068 40.4318C317.451 40.1809 317.887 39.9915 318.375 39.8636C318.867 39.7358 319.383 39.6458 319.923 39.5938C320.557 39.5275 321.069 39.4659 321.457 39.4091C321.845 39.3475 322.127 39.2576 322.302 39.1392C322.477 39.0208 322.565 38.8456 322.565 38.6136V38.571C322.565 38.1212 322.423 37.7732 322.139 37.527C321.859 37.2808 321.462 37.1577 320.946 37.1577C320.401 37.1577 319.968 37.2784 319.646 37.5199C319.324 37.7566 319.111 38.0549 319.007 38.4148L316.208 38.1875C316.35 37.5246 316.63 36.9517 317.047 36.4688C317.463 35.9811 318.001 35.607 318.659 35.3466C319.322 35.0814 320.089 34.9489 320.96 34.9489C321.566 34.9489 322.146 35.0199 322.7 35.1619C323.259 35.304 323.753 35.5241 324.184 35.8224C324.62 36.1207 324.963 36.5043 325.214 36.973C325.465 37.437 325.591 37.9934 325.591 38.642V46H322.721V44.4872H322.636C322.461 44.8281 322.226 45.1288 321.933 45.3892C321.639 45.6449 321.287 45.8461 320.875 45.9929C320.463 46.1349 319.987 46.206 319.447 46.206ZM320.314 44.1179C320.759 44.1179 321.152 44.0303 321.493 43.8551C321.833 43.6752 322.101 43.4337 322.295 43.1307C322.489 42.8277 322.586 42.4844 322.586 42.1009V40.9432C322.492 41.0047 322.361 41.0616 322.196 41.1136C322.035 41.161 321.852 41.206 321.649 41.2486C321.445 41.2865 321.242 41.322 321.038 41.3551C320.834 41.3835 320.65 41.4096 320.484 41.4332C320.129 41.4853 319.819 41.5682 319.554 41.6818C319.288 41.7955 319.083 41.9493 318.936 42.1435C318.789 42.3329 318.716 42.5696 318.716 42.8537C318.716 43.2656 318.865 43.5805 319.163 43.7983C319.466 44.0114 319.85 44.1179 320.314 44.1179ZM327.938 46V35.0909H330.821V37.0156H330.949C331.176 36.3764 331.555 35.8722 332.086 35.5028C332.616 35.1335 333.25 34.9489 333.989 34.9489C334.737 34.9489 335.374 35.1359 335.9 35.5099C336.425 35.8793 336.775 36.3812 336.951 37.0156H337.064C337.287 36.3906 337.689 35.8911 338.272 35.517C338.859 35.1383 339.552 34.9489 340.353 34.9489C341.371 34.9489 342.197 35.2732 342.831 35.9219C343.471 36.5658 343.79 37.4796 343.79 38.6634V46H340.772V39.2599C340.772 38.6539 340.611 38.1993 340.289 37.8963C339.967 37.5933 339.564 37.4418 339.081 37.4418C338.532 37.4418 338.104 37.617 337.796 37.9673C337.488 38.313 337.334 38.7699 337.334 39.3381V46H334.401V39.196C334.401 38.661 334.247 38.2348 333.939 37.9176C333.636 37.6004 333.236 37.4418 332.739 37.4418C332.403 37.4418 332.1 37.527 331.83 37.6974C331.565 37.8632 331.354 38.0975 331.198 38.4006C331.042 38.6989 330.963 39.0492 330.963 39.4517V46H327.938ZM350.809 46V35.0909H353.835V46H350.809ZM352.329 33.6847C351.879 33.6847 351.493 33.5355 351.171 33.2372C350.854 32.9342 350.695 32.572 350.695 32.1506C350.695 31.7339 350.854 31.3764 351.171 31.0781C351.493 30.7751 351.879 30.6236 352.329 30.6236C352.779 30.6236 353.162 30.7751 353.479 31.0781C353.801 31.3764 353.962 31.7339 353.962 32.1506C353.962 32.572 353.801 32.9342 353.479 33.2372C353.162 33.5355 352.779 33.6847 352.329 33.6847ZM359.284 39.6932V46H356.258V35.0909H359.142V37.0156H359.27C359.511 36.3812 359.916 35.8793 360.484 35.5099C361.052 35.1359 361.741 34.9489 362.551 34.9489C363.308 34.9489 363.969 35.1146 364.532 35.446C365.096 35.7775 365.534 36.2509 365.846 36.8665C366.159 37.4773 366.315 38.2064 366.315 39.054V46H363.289V39.5938C363.294 38.9261 363.124 38.4053 362.778 38.0312C362.432 37.6525 361.957 37.4631 361.35 37.4631C360.943 37.4631 360.583 37.5507 360.271 37.7259C359.963 37.901 359.722 38.1567 359.547 38.4929C359.376 38.8243 359.288 39.2244 359.284 39.6932ZM368.7 46V35.0909H371.725V46H368.7ZM370.219 33.6847C369.77 33.6847 369.384 33.5355 369.062 33.2372C368.745 32.9342 368.586 32.572 368.586 32.1506C368.586 31.7339 368.745 31.3764 369.062 31.0781C369.384 30.7751 369.77 30.6236 370.219 30.6236C370.669 30.6236 371.053 30.7751 371.37 31.0781C371.692 31.3764 371.853 31.7339 371.853 32.1506C371.853 32.572 371.692 32.9342 371.37 33.2372C371.053 33.5355 370.669 33.6847 370.219 33.6847ZM379.951 35.0909V37.3636H373.382V35.0909H379.951ZM374.873 32.4773H377.899V42.6477C377.899 42.9271 377.941 43.1449 378.027 43.3011C378.112 43.4527 378.23 43.5592 378.382 43.6207C378.538 43.6823 378.718 43.7131 378.922 43.7131C379.064 43.7131 379.206 43.7012 379.348 43.6776C379.49 43.6491 379.599 43.6278 379.674 43.6136L380.15 45.8651C379.999 45.9124 379.786 45.9669 379.511 46.0284C379.236 46.0947 378.903 46.1349 378.51 46.1491C377.78 46.1776 377.141 46.0805 376.592 45.858C376.047 45.6354 375.624 45.2898 375.321 44.821C375.018 44.3523 374.868 43.7604 374.873 43.0455V32.4773ZM381.922 46V35.0909H384.948V46H381.922ZM383.442 33.6847C382.992 33.6847 382.606 33.5355 382.284 33.2372C381.967 32.9342 381.809 32.572 381.809 32.1506C381.809 31.7339 381.967 31.3764 382.284 31.0781C382.606 30.7751 382.992 30.6236 383.442 30.6236C383.892 30.6236 384.275 30.7751 384.593 31.0781C384.915 31.3764 385.076 31.7339 385.076 32.1506C385.076 32.572 384.915 32.9342 384.593 33.2372C384.275 33.5355 383.892 33.6847 383.442 33.6847ZM390.482 46.206C389.786 46.206 389.166 46.0852 388.621 45.8438C388.077 45.5975 387.646 45.2353 387.329 44.7571C387.016 44.2741 386.86 43.6728 386.86 42.9531C386.86 42.3471 386.971 41.8381 387.194 41.4261C387.416 41.0142 387.719 40.6828 388.103 40.4318C388.487 40.1809 388.922 39.9915 389.41 39.8636C389.902 39.7358 390.418 39.6458 390.958 39.5938C391.593 39.5275 392.104 39.4659 392.492 39.4091C392.88 39.3475 393.162 39.2576 393.337 39.1392C393.513 39.0208 393.6 38.8456 393.6 38.6136V38.571C393.6 38.1212 393.458 37.7732 393.174 37.527C392.895 37.2808 392.497 37.1577 391.981 37.1577C391.436 37.1577 391.003 37.2784 390.681 37.5199C390.359 37.7566 390.146 38.0549 390.042 38.4148L387.244 38.1875C387.386 37.5246 387.665 36.9517 388.082 36.4688C388.498 35.9811 389.036 35.607 389.694 35.3466C390.357 35.0814 391.124 34.9489 391.995 34.9489C392.601 34.9489 393.181 35.0199 393.735 35.1619C394.294 35.304 394.789 35.5241 395.219 35.8224C395.655 36.1207 395.998 36.5043 396.249 36.973C396.5 37.437 396.626 37.9934 396.626 38.642V46H393.756V44.4872H393.671C393.496 44.8281 393.262 45.1288 392.968 45.3892C392.674 45.6449 392.322 45.8461 391.91 45.9929C391.498 46.1349 391.022 46.206 390.482 46.206ZM391.349 44.1179C391.794 44.1179 392.187 44.0303 392.528 43.8551C392.869 43.6752 393.136 43.4337 393.33 43.1307C393.524 42.8277 393.621 42.4844 393.621 42.1009V40.9432C393.527 41.0047 393.397 41.0616 393.231 41.1136C393.07 41.161 392.888 41.206 392.684 41.2486C392.48 41.2865 392.277 41.322 392.073 41.3551C391.87 41.3835 391.685 41.4096 391.519 41.4332C391.164 41.4853 390.854 41.5682 390.589 41.6818C390.324 41.7955 390.118 41.9493 389.971 42.1435C389.824 42.3329 389.751 42.5696 389.751 42.8537C389.751 43.2656 389.9 43.5805 390.198 43.7983C390.501 44.0114 390.885 44.1179 391.349 44.1179ZM401.999 31.4545V46H398.973V31.4545H401.999Z" fill="white"/>
<rect x="57" y="84" width="342" height="78" fill="#7029AF"/>
<rect x="218" y="102" width="144.133" height="46" rx="6" fill="#3C8DBC"/>
<path d="M240.207 137.091V122.091H243.19V123.923H243.325C243.458 123.63 243.65 123.331 243.901 123.028C244.156 122.721 244.488 122.465 244.895 122.261C245.307 122.053 245.818 121.949 246.429 121.949C247.224 121.949 247.958 122.157 248.631 122.574C249.303 122.986 249.84 123.608 250.243 124.442C250.645 125.27 250.847 126.31 250.847 127.56C250.847 128.777 250.65 129.804 250.257 130.642C249.869 131.475 249.339 132.107 248.666 132.538C247.999 132.964 247.25 133.178 246.422 133.178C245.835 133.178 245.335 133.08 244.923 132.886C244.516 132.692 244.182 132.448 243.922 132.155C243.661 131.857 243.463 131.556 243.325 131.253H243.233V137.091H240.207ZM243.169 127.545C243.169 128.194 243.259 128.76 243.439 129.243C243.619 129.726 243.879 130.102 244.22 130.372C244.561 130.637 244.975 130.77 245.463 130.77C245.955 130.77 246.372 130.635 246.713 130.365C247.054 130.09 247.312 129.712 247.487 129.229C247.667 128.741 247.757 128.18 247.757 127.545C247.757 126.916 247.67 126.362 247.494 125.884C247.319 125.405 247.061 125.031 246.72 124.761C246.379 124.491 245.96 124.357 245.463 124.357C244.971 124.357 244.554 124.487 244.213 124.747C243.877 125.008 243.619 125.377 243.439 125.855C243.259 126.333 243.169 126.897 243.169 127.545ZM255.974 133.206C255.278 133.206 254.658 133.085 254.114 132.844C253.569 132.598 253.138 132.235 252.821 131.757C252.509 131.274 252.352 130.673 252.352 129.953C252.352 129.347 252.464 128.838 252.686 128.426C252.909 128.014 253.212 127.683 253.595 127.432C253.979 127.181 254.414 126.991 254.902 126.864C255.394 126.736 255.911 126.646 256.45 126.594C257.085 126.527 257.596 126.466 257.984 126.409C258.373 126.348 258.654 126.258 258.83 126.139C259.005 126.021 259.092 125.846 259.092 125.614V125.571C259.092 125.121 258.95 124.773 258.666 124.527C258.387 124.281 257.989 124.158 257.473 124.158C256.929 124.158 256.495 124.278 256.173 124.52C255.851 124.757 255.638 125.055 255.534 125.415L252.736 125.188C252.878 124.525 253.157 123.952 253.574 123.469C253.991 122.981 254.528 122.607 255.186 122.347C255.849 122.081 256.616 121.949 257.487 121.949C258.093 121.949 258.673 122.02 259.227 122.162C259.786 122.304 260.281 122.524 260.712 122.822C261.147 123.121 261.491 123.504 261.741 123.973C261.992 124.437 262.118 124.993 262.118 125.642V133H259.249V131.487H259.163C258.988 131.828 258.754 132.129 258.46 132.389C258.167 132.645 257.814 132.846 257.402 132.993C256.99 133.135 256.514 133.206 255.974 133.206ZM256.841 131.118C257.286 131.118 257.679 131.03 258.02 130.855C258.361 130.675 258.628 130.434 258.822 130.131C259.017 129.828 259.114 129.484 259.114 129.101V127.943C259.019 128.005 258.889 128.062 258.723 128.114C258.562 128.161 258.38 128.206 258.176 128.249C257.973 128.286 257.769 128.322 257.565 128.355C257.362 128.384 257.177 128.41 257.011 128.433C256.656 128.485 256.346 128.568 256.081 128.682C255.816 128.795 255.61 128.949 255.463 129.143C255.316 129.333 255.243 129.57 255.243 129.854C255.243 130.266 255.392 130.58 255.69 130.798C255.993 131.011 256.377 131.118 256.841 131.118ZM264.465 133V122.091H267.398V123.994H267.512C267.711 123.317 268.045 122.806 268.513 122.46C268.982 122.11 269.522 121.935 270.133 121.935C270.284 121.935 270.448 121.944 270.623 121.963C270.798 121.982 270.952 122.008 271.085 122.041V124.726C270.942 124.683 270.746 124.645 270.495 124.612C270.244 124.579 270.014 124.562 269.806 124.562C269.361 124.562 268.963 124.66 268.613 124.854C268.267 125.043 267.993 125.308 267.789 125.649C267.59 125.99 267.491 126.383 267.491 126.828V133H264.465ZM275.447 133.206C274.751 133.206 274.131 133.085 273.586 132.844C273.042 132.598 272.611 132.235 272.294 131.757C271.981 131.274 271.825 130.673 271.825 129.953C271.825 129.347 271.936 128.838 272.159 128.426C272.381 128.014 272.684 127.683 273.068 127.432C273.451 127.181 273.887 126.991 274.375 126.864C274.867 126.736 275.383 126.646 275.923 126.594C276.557 126.527 277.069 126.466 277.457 126.409C277.845 126.348 278.127 126.258 278.302 126.139C278.477 126.021 278.565 125.846 278.565 125.614V125.571C278.565 125.121 278.423 124.773 278.139 124.527C277.859 124.281 277.462 124.158 276.946 124.158C276.401 124.158 275.968 124.278 275.646 124.52C275.324 124.757 275.111 125.055 275.007 125.415L272.208 125.188C272.35 124.525 272.63 123.952 273.047 123.469C273.463 122.981 274.001 122.607 274.659 122.347C275.322 122.081 276.089 121.949 276.96 121.949C277.566 121.949 278.146 122.02 278.7 122.162C279.259 122.304 279.753 122.524 280.184 122.822C280.62 123.121 280.963 123.504 281.214 123.973C281.465 124.437 281.591 124.993 281.591 125.642V133H278.721V131.487H278.636C278.461 131.828 278.226 132.129 277.933 132.389C277.639 132.645 277.287 132.846 276.875 132.993C276.463 133.135 275.987 133.206 275.447 133.206ZM276.314 131.118C276.759 131.118 277.152 131.03 277.493 130.855C277.833 130.675 278.101 130.434 278.295 130.131C278.489 129.828 278.586 129.484 278.586 129.101V127.943C278.492 128.005 278.361 128.062 278.196 128.114C278.035 128.161 277.852 128.206 277.649 128.249C277.445 128.286 277.242 128.322 277.038 128.355C276.834 128.384 276.65 128.41 276.484 128.433C276.129 128.485 275.819 128.568 275.554 128.682C275.288 128.795 275.083 128.949 274.936 129.143C274.789 129.333 274.716 129.57 274.716 129.854C274.716 130.266 274.865 130.58 275.163 130.798C275.466 131.011 275.85 131.118 276.314 131.118ZM283.938 133V122.091H286.821V124.016H286.949C287.176 123.376 287.555 122.872 288.086 122.503C288.616 122.134 289.25 121.949 289.989 121.949C290.737 121.949 291.374 122.136 291.9 122.51C292.425 122.879 292.775 123.381 292.951 124.016H293.064C293.287 123.391 293.689 122.891 294.272 122.517C294.859 122.138 295.552 121.949 296.353 121.949C297.371 121.949 298.197 122.273 298.831 122.922C299.471 123.566 299.79 124.48 299.79 125.663V133H296.772V126.26C296.772 125.654 296.611 125.199 296.289 124.896C295.967 124.593 295.564 124.442 295.081 124.442C294.532 124.442 294.104 124.617 293.796 124.967C293.488 125.313 293.334 125.77 293.334 126.338V133H290.401V126.196C290.401 125.661 290.247 125.235 289.939 124.918C289.636 124.6 289.236 124.442 288.739 124.442C288.403 124.442 288.1 124.527 287.83 124.697C287.565 124.863 287.354 125.098 287.198 125.401C287.042 125.699 286.963 126.049 286.963 126.452V133H283.938ZM307.152 133.213C306.029 133.213 305.064 132.986 304.254 132.531C303.449 132.072 302.829 131.423 302.393 130.585C301.958 129.742 301.74 128.746 301.74 127.595C301.74 126.473 301.958 125.488 302.393 124.641C302.829 123.793 303.442 123.133 304.233 122.659C305.028 122.186 305.961 121.949 307.031 121.949C307.751 121.949 308.421 122.065 309.041 122.297C309.666 122.524 310.21 122.867 310.674 123.327C311.143 123.786 311.508 124.364 311.768 125.06C312.029 125.751 312.159 126.561 312.159 127.489V128.32H302.947V126.445H309.311C309.311 126.009 309.216 125.623 309.027 125.287C308.837 124.951 308.574 124.688 308.238 124.499C307.907 124.304 307.521 124.207 307.081 124.207C306.621 124.207 306.214 124.314 305.859 124.527C305.509 124.735 305.234 125.017 305.035 125.372C304.836 125.723 304.734 126.113 304.73 126.544V128.327C304.73 128.866 304.829 129.333 305.028 129.726C305.232 130.119 305.518 130.422 305.887 130.635C306.257 130.848 306.695 130.955 307.201 130.955C307.538 130.955 307.845 130.907 308.125 130.812C308.404 130.718 308.643 130.576 308.842 130.386C309.041 130.197 309.192 129.965 309.297 129.69L312.095 129.875C311.953 130.547 311.662 131.134 311.221 131.636C310.786 132.134 310.222 132.522 309.531 132.801C308.844 133.076 308.051 133.213 307.152 133.213ZM319.936 122.091V124.364H313.366V122.091H319.936ZM314.858 119.477H317.883V129.648C317.883 129.927 317.926 130.145 318.011 130.301C318.096 130.453 318.215 130.559 318.366 130.621C318.522 130.682 318.702 130.713 318.906 130.713C319.048 130.713 319.19 130.701 319.332 130.678C319.474 130.649 319.583 130.628 319.659 130.614L320.135 132.865C319.983 132.912 319.77 132.967 319.495 133.028C319.221 133.095 318.887 133.135 318.494 133.149C317.765 133.178 317.126 133.08 316.576 132.858C316.032 132.635 315.608 132.29 315.305 131.821C315.002 131.352 314.853 130.76 314.858 130.045V119.477ZM321.907 133V122.091H324.84V123.994H324.953C325.152 123.317 325.486 122.806 325.955 122.46C326.424 122.11 326.963 121.935 327.574 121.935C327.726 121.935 327.889 121.944 328.064 121.963C328.239 121.982 328.393 122.008 328.526 122.041V124.726C328.384 124.683 328.187 124.645 327.936 124.612C327.685 124.579 327.456 124.562 327.248 124.562C326.802 124.562 326.405 124.66 326.054 124.854C325.709 125.043 325.434 125.308 325.23 125.649C325.032 125.99 324.932 126.383 324.932 126.828V133H321.907ZM337.086 128.355V122.091H340.112V133H337.207V131.018H337.093C336.847 131.658 336.437 132.171 335.864 132.56C335.296 132.948 334.603 133.142 333.783 133.142C333.054 133.142 332.413 132.976 331.859 132.645C331.305 132.313 330.871 131.842 330.559 131.232C330.251 130.621 330.095 129.889 330.09 129.037V122.091H333.116V128.497C333.121 129.141 333.293 129.65 333.634 130.024C333.975 130.398 334.432 130.585 335.005 130.585C335.37 130.585 335.71 130.502 336.028 130.337C336.345 130.166 336.601 129.915 336.795 129.584C336.994 129.252 337.091 128.843 337.086 128.355Z" fill="white"/>
<path d="M73.1364 132.213C72.0189 132.213 71.0578 131.976 70.2528 131.503C69.4527 131.025 68.8371 130.362 68.4062 129.514C67.9801 128.667 67.767 127.691 67.767 126.588C67.767 125.471 67.9825 124.491 68.4134 123.648C68.849 122.8 69.4669 122.14 70.267 121.666C71.0672 121.188 72.0189 120.949 73.1222 120.949C74.0739 120.949 74.9072 121.122 75.6222 121.467C76.3371 121.813 76.9029 122.298 77.3196 122.923C77.7363 123.548 77.9659 124.282 78.0085 125.125H75.1534C75.0729 124.58 74.8598 124.143 74.5142 123.811C74.1733 123.475 73.7259 123.307 73.1719 123.307C72.7031 123.307 72.2936 123.435 71.9432 123.69C71.5975 123.941 71.3277 124.308 71.1335 124.791C70.9394 125.274 70.8423 125.859 70.8423 126.545C70.8423 127.241 70.937 127.833 71.1264 128.321C71.3205 128.809 71.5928 129.18 71.9432 129.436C72.2936 129.692 72.7031 129.82 73.1719 129.82C73.5175 129.82 73.8277 129.749 74.1023 129.607C74.3816 129.464 74.6113 129.259 74.7912 128.989C74.9759 128.714 75.0966 128.385 75.1534 128.001H78.0085C77.9612 128.835 77.7339 129.569 77.3267 130.203C76.9242 130.833 76.3679 131.325 75.6577 131.68C74.9474 132.036 74.107 132.213 73.1364 132.213ZM83.0565 132.206C82.3604 132.206 81.7402 132.085 81.1957 131.844C80.6512 131.598 80.2203 131.235 79.9031 130.757C79.5906 130.274 79.4343 129.673 79.4343 128.953C79.4343 128.347 79.5456 127.838 79.7681 127.426C79.9906 127.014 80.2937 126.683 80.6772 126.432C81.0607 126.181 81.4963 125.991 81.984 125.864C82.4764 125.736 82.9925 125.646 83.5323 125.594C84.1668 125.527 84.6781 125.466 85.0664 125.409C85.4547 125.348 85.7364 125.258 85.9116 125.139C86.0868 125.021 86.1744 124.846 86.1744 124.614V124.571C86.1744 124.121 86.0323 123.773 85.7482 123.527C85.4689 123.281 85.0711 123.158 84.555 123.158C84.0105 123.158 83.5773 123.278 83.2553 123.52C82.9334 123.757 82.7203 124.055 82.6161 124.415L79.8178 124.188C79.9599 123.525 80.2392 122.952 80.6559 122.469C81.0726 121.981 81.61 121.607 82.2681 121.347C82.931 121.081 83.698 120.949 84.5692 120.949C85.1753 120.949 85.7553 121.02 86.3093 121.162C86.868 121.304 87.3628 121.524 87.7937 121.822C88.2293 122.121 88.5726 122.504 88.8235 122.973C89.0745 123.437 89.1999 123.993 89.1999 124.642V132H86.3306V130.487H86.2454C86.0702 130.828 85.8358 131.129 85.5423 131.389C85.2487 131.645 84.896 131.846 84.484 131.993C84.0721 132.135 83.5962 132.206 83.0565 132.206ZM83.9229 130.118C84.368 130.118 84.761 130.03 85.1019 129.855C85.4428 129.675 85.7103 129.434 85.9045 129.131C86.0986 128.828 86.1957 128.484 86.1957 128.101V126.943C86.101 127.005 85.9708 127.062 85.805 127.114C85.6441 127.161 85.4618 127.206 85.2582 127.249C85.0546 127.286 84.851 127.322 84.6474 127.355C84.4438 127.384 84.2591 127.41 84.0934 127.433C83.7383 127.485 83.4281 127.568 83.163 127.682C82.8978 127.795 82.6919 127.949 82.5451 128.143C82.3983 128.333 82.3249 128.57 82.3249 128.854C82.3249 129.266 82.4741 129.58 82.7724 129.798C83.0754 130.011 83.4589 130.118 83.9229 130.118ZM91.4904 132V130.196L96.8313 123.584V123.506H91.6751V121.091H100.475V123.058L95.4606 129.507V129.585H100.659V132H91.4904ZM107.602 132V121.091H110.535V122.994H110.649C110.848 122.317 111.181 121.806 111.65 121.46C112.119 121.11 112.659 120.935 113.27 120.935C113.421 120.935 113.584 120.944 113.76 120.963C113.935 120.982 114.089 121.008 114.221 121.041V123.726C114.079 123.683 113.883 123.645 113.632 123.612C113.381 123.579 113.151 123.562 112.943 123.562C112.498 123.562 112.1 123.66 111.75 123.854C111.404 124.043 111.129 124.308 110.926 124.649C110.727 124.99 110.627 125.383 110.627 125.828V132H107.602ZM120.249 132.213C119.127 132.213 118.161 131.986 117.352 131.531C116.547 131.072 115.926 130.423 115.491 129.585C115.055 128.742 114.837 127.746 114.837 126.595C114.837 125.473 115.055 124.488 115.491 123.641C115.926 122.793 116.54 122.133 117.33 121.659C118.126 121.186 119.058 120.949 120.129 120.949C120.848 120.949 121.518 121.065 122.138 121.297C122.763 121.524 123.308 121.867 123.772 122.327C124.241 122.786 124.605 123.364 124.866 124.06C125.126 124.751 125.256 125.561 125.256 126.489V127.32H116.045V125.445H122.408C122.408 125.009 122.314 124.623 122.124 124.287C121.935 123.951 121.672 123.688 121.336 123.499C121.004 123.304 120.619 123.207 120.178 123.207C119.719 123.207 119.312 123.314 118.957 123.527C118.606 123.735 118.332 124.017 118.133 124.372C117.934 124.723 117.832 125.113 117.827 125.544V127.327C117.827 127.866 117.927 128.333 118.126 128.726C118.329 129.119 118.616 129.422 118.985 129.635C119.354 129.848 119.792 129.955 120.299 129.955C120.635 129.955 120.943 129.907 121.222 129.812C121.502 129.718 121.741 129.576 121.94 129.386C122.138 129.197 122.29 128.965 122.394 128.69L125.192 128.875C125.05 129.547 124.759 130.134 124.319 130.636C123.883 131.134 123.32 131.522 122.629 131.801C121.942 132.076 121.149 132.213 120.249 132.213ZM132.16 132.213C131.042 132.213 130.081 131.976 129.276 131.503C128.476 131.025 127.861 130.362 127.43 129.514C127.004 128.667 126.79 127.691 126.79 126.588C126.79 125.471 127.006 124.491 127.437 123.648C127.872 122.8 128.49 122.14 129.29 121.666C130.091 121.188 131.042 120.949 132.146 120.949C133.097 120.949 133.931 121.122 134.646 121.467C135.361 121.813 135.926 122.298 136.343 122.923C136.76 123.548 136.989 124.282 137.032 125.125H134.177C134.096 124.58 133.883 124.143 133.538 123.811C133.197 123.475 132.749 123.307 132.195 123.307C131.727 123.307 131.317 123.435 130.967 123.69C130.621 123.941 130.351 124.308 130.157 124.791C129.963 125.274 129.866 125.859 129.866 126.545C129.866 127.241 129.96 127.833 130.15 128.321C130.344 128.809 130.616 129.18 130.967 129.436C131.317 129.692 131.727 129.82 132.195 129.82C132.541 129.82 132.851 129.749 133.126 129.607C133.405 129.464 133.635 129.259 133.815 128.989C133.999 128.714 134.12 128.385 134.177 128.001H137.032C136.985 128.835 136.757 129.569 136.35 130.203C135.948 130.833 135.391 131.325 134.681 131.68C133.971 132.036 133.13 132.213 132.16 132.213ZM145.965 127.355V121.091H148.99V132H146.086V130.018H145.972C145.726 130.658 145.316 131.171 144.743 131.56C144.175 131.948 143.481 132.142 142.662 132.142C141.933 132.142 141.292 131.976 140.738 131.645C140.184 131.313 139.75 130.842 139.438 130.232C139.13 129.621 138.974 128.889 138.969 128.037V121.091H141.995V127.497C141.999 128.141 142.172 128.65 142.513 129.024C142.854 129.398 143.311 129.585 143.884 129.585C144.248 129.585 144.589 129.502 144.907 129.337C145.224 129.166 145.48 128.915 145.674 128.584C145.873 128.252 145.97 127.843 145.965 127.355ZM160.487 124.202L157.717 124.372C157.67 124.135 157.568 123.922 157.412 123.733C157.256 123.539 157.05 123.385 156.794 123.271C156.543 123.153 156.242 123.094 155.892 123.094C155.423 123.094 155.028 123.193 154.706 123.392C154.384 123.586 154.223 123.847 154.223 124.173C154.223 124.434 154.327 124.654 154.536 124.834C154.744 125.014 155.101 125.158 155.608 125.267L157.582 125.665C158.643 125.883 159.434 126.233 159.955 126.716C160.475 127.199 160.736 127.833 160.736 128.619C160.736 129.334 160.525 129.962 160.104 130.501C159.687 131.041 159.114 131.463 158.385 131.766C157.661 132.064 156.825 132.213 155.878 132.213C154.434 132.213 153.283 131.912 152.426 131.311C151.574 130.705 151.074 129.881 150.928 128.839L153.903 128.683C153.993 129.124 154.211 129.46 154.557 129.692C154.902 129.919 155.345 130.033 155.885 130.033C156.415 130.033 156.841 129.931 157.163 129.727C157.49 129.519 157.656 129.251 157.661 128.925C157.656 128.65 157.54 128.425 157.312 128.25C157.085 128.07 156.735 127.933 156.261 127.838L154.372 127.462C153.307 127.249 152.514 126.879 151.993 126.354C151.477 125.828 151.219 125.158 151.219 124.344C151.219 123.643 151.408 123.039 151.787 122.533C152.17 122.026 152.708 121.635 153.399 121.361C154.095 121.086 154.91 120.949 155.842 120.949C157.22 120.949 158.304 121.24 159.095 121.822C159.891 122.405 160.355 123.198 160.487 124.202ZM162.641 132V121.091H165.667V132H162.641ZM164.161 119.685C163.711 119.685 163.325 119.536 163.003 119.237C162.686 118.934 162.527 118.572 162.527 118.151C162.527 117.734 162.686 117.376 163.003 117.078C163.325 116.775 163.711 116.624 164.161 116.624C164.611 116.624 164.994 116.775 165.311 117.078C165.633 117.376 165.794 117.734 165.794 118.151C165.794 118.572 165.633 118.934 165.311 119.237C164.994 119.536 164.611 119.685 164.161 119.685ZM178.261 121.091L174.447 132H171.038L167.224 121.091H170.42L172.685 128.896H172.799L175.058 121.091H178.261Z" fill="white"/>
<rect x="57" y="172" width="281" height="78" fill="#26A833"/>
<rect x="220" y="184" width="90.475" height="46" rx="6" fill="#3C8DBC"/>
<path d="M226.906 216.068V204.818H229.143V206.192H229.244C229.343 205.972 229.487 205.749 229.675 205.521C229.867 205.29 230.116 205.099 230.421 204.946C230.73 204.79 231.114 204.712 231.572 204.712C232.168 204.712 232.719 204.868 233.223 205.18C233.727 205.489 234.13 205.956 234.432 206.581C234.734 207.203 234.885 207.982 234.885 208.92C234.885 209.832 234.738 210.603 234.443 211.232C234.152 211.857 233.754 212.331 233.25 212.654C232.749 212.973 232.188 213.133 231.566 213.133C231.126 213.133 230.751 213.06 230.442 212.915C230.137 212.769 229.887 212.586 229.691 212.366C229.496 212.142 229.347 211.917 229.244 211.69H229.175V216.068H226.906ZM229.127 208.909C229.127 209.396 229.194 209.82 229.329 210.182C229.464 210.544 229.659 210.827 229.915 211.029C230.171 211.228 230.482 211.327 230.847 211.327C231.217 211.327 231.529 211.226 231.785 211.024C232.04 210.818 232.234 210.534 232.365 210.172C232.5 209.806 232.568 209.385 232.568 208.909C232.568 208.437 232.502 208.021 232.371 207.663C232.239 207.304 232.046 207.023 231.79 206.821C231.534 206.619 231.22 206.517 230.847 206.517C230.478 206.517 230.165 206.615 229.91 206.81C229.658 207.006 229.464 207.283 229.329 207.641C229.194 208 229.127 208.423 229.127 208.909ZM238.731 213.154C238.209 213.154 237.744 213.064 237.335 212.883C236.927 212.698 236.604 212.426 236.366 212.068C236.131 211.706 236.014 211.255 236.014 210.715C236.014 210.26 236.098 209.879 236.265 209.57C236.431 209.261 236.659 209.012 236.946 208.824C237.234 208.636 237.561 208.494 237.926 208.398C238.296 208.302 238.683 208.234 239.088 208.195C239.564 208.146 239.947 208.099 240.238 208.057C240.529 208.011 240.741 207.943 240.872 207.854C241.004 207.766 241.069 207.634 241.069 207.46V207.428C241.069 207.091 240.963 206.83 240.75 206.645C240.54 206.461 240.242 206.368 239.855 206.368C239.446 206.368 239.121 206.459 238.88 206.64C238.638 206.817 238.479 207.041 238.401 207.311L236.302 207.141C236.408 206.643 236.618 206.214 236.93 205.852C237.243 205.486 237.646 205.205 238.14 205.01C238.637 204.811 239.212 204.712 239.865 204.712C240.32 204.712 240.755 204.765 241.17 204.871C241.589 204.978 241.961 205.143 242.284 205.367C242.61 205.591 242.868 205.878 243.056 206.23C243.244 206.578 243.338 206.995 243.338 207.482V213H241.186V211.865H241.123C240.991 212.121 240.815 212.347 240.595 212.542C240.375 212.734 240.11 212.885 239.801 212.995C239.493 213.101 239.136 213.154 238.731 213.154ZM239.381 211.588C239.714 211.588 240.009 211.523 240.265 211.391C240.521 211.256 240.721 211.075 240.867 210.848C241.012 210.621 241.085 210.363 241.085 210.076V209.207C241.014 209.254 240.917 209.296 240.792 209.335C240.672 209.371 240.535 209.404 240.382 209.436C240.229 209.465 240.077 209.491 239.924 209.516C239.771 209.538 239.633 209.557 239.509 209.575C239.242 209.614 239.01 209.676 238.811 209.761C238.612 209.847 238.457 209.962 238.347 210.108C238.237 210.25 238.182 210.427 238.182 210.64C238.182 210.949 238.294 211.185 238.518 211.349C238.745 211.509 239.033 211.588 239.381 211.588ZM245.099 213V204.818H247.299V206.246H247.384C247.533 205.738 247.784 205.354 248.135 205.095C248.487 204.832 248.892 204.701 249.35 204.701C249.463 204.701 249.586 204.708 249.717 204.722C249.849 204.737 249.964 204.756 250.063 204.781V206.794C249.957 206.762 249.809 206.734 249.621 206.709C249.433 206.684 249.261 206.672 249.105 206.672C248.771 206.672 248.472 206.745 248.21 206.89C247.95 207.032 247.744 207.231 247.592 207.487C247.443 207.743 247.368 208.037 247.368 208.371V213H245.099ZM253.335 213.154C252.813 213.154 252.348 213.064 251.94 212.883C251.531 212.698 251.208 212.426 250.97 212.068C250.736 211.706 250.619 211.255 250.619 210.715C250.619 210.26 250.702 209.879 250.869 209.57C251.036 209.261 251.263 209.012 251.551 208.824C251.839 208.636 252.165 208.494 252.531 208.398C252.9 208.302 253.287 208.234 253.692 208.195C254.168 208.146 254.552 208.099 254.843 208.057C255.134 208.011 255.345 207.943 255.477 207.854C255.608 207.766 255.674 207.634 255.674 207.46V207.428C255.674 207.091 255.567 206.83 255.354 206.645C255.145 206.461 254.846 206.368 254.459 206.368C254.051 206.368 253.726 206.459 253.484 206.64C253.243 206.817 253.083 207.041 253.005 207.311L250.906 207.141C251.013 206.643 251.222 206.214 251.535 205.852C251.847 205.486 252.25 205.205 252.744 205.01C253.241 204.811 253.816 204.712 254.47 204.712C254.924 204.712 255.359 204.765 255.775 204.871C256.194 204.978 256.565 205.143 256.888 205.367C257.215 205.591 257.472 205.878 257.661 206.23C257.849 206.578 257.943 206.995 257.943 207.482V213H255.791V211.865H255.727C255.596 212.121 255.42 212.347 255.2 212.542C254.979 212.734 254.715 212.885 254.406 212.995C254.097 213.101 253.74 213.154 253.335 213.154ZM253.985 211.588C254.319 211.588 254.614 211.523 254.869 211.391C255.125 211.256 255.326 211.075 255.471 210.848C255.617 210.621 255.69 210.363 255.69 210.076V209.207C255.619 209.254 255.521 209.296 255.397 209.335C255.276 209.371 255.139 209.404 254.987 209.436C254.834 209.465 254.681 209.491 254.528 209.516C254.376 209.538 254.237 209.557 254.113 209.575C253.847 209.614 253.614 209.676 253.415 209.761C253.216 209.847 253.062 209.962 252.952 210.108C252.842 210.25 252.787 210.427 252.787 210.64C252.787 210.949 252.899 211.185 253.122 211.349C253.35 211.509 253.637 211.588 253.985 211.588ZM259.703 213V204.818H261.866V206.262H261.962C262.132 205.782 262.416 205.404 262.814 205.127C263.212 204.85 263.688 204.712 264.242 204.712C264.803 204.712 265.28 204.852 265.675 205.132C266.069 205.409 266.332 205.786 266.463 206.262H266.548C266.715 205.793 267.017 205.418 267.454 205.138C267.894 204.854 268.414 204.712 269.014 204.712C269.778 204.712 270.398 204.955 270.873 205.441C271.353 205.924 271.593 206.61 271.593 207.498V213H269.329V207.945C269.329 207.49 269.208 207.15 268.967 206.922C268.725 206.695 268.423 206.581 268.061 206.581C267.649 206.581 267.328 206.713 267.097 206.975C266.866 207.235 266.751 207.577 266.751 208.004V213H264.551V207.897C264.551 207.496 264.435 207.176 264.204 206.938C263.977 206.7 263.677 206.581 263.304 206.581C263.052 206.581 262.825 206.645 262.622 206.773C262.424 206.897 262.266 207.073 262.148 207.3C262.031 207.524 261.973 207.787 261.973 208.089V213H259.703ZM277.114 213.16C276.272 213.16 275.548 212.989 274.94 212.648C274.337 212.304 273.872 211.817 273.545 211.189C273.218 210.557 273.055 209.809 273.055 208.946C273.055 208.105 273.218 207.366 273.545 206.73C273.872 206.095 274.331 205.599 274.924 205.244C275.521 204.889 276.221 204.712 277.023 204.712C277.563 204.712 278.065 204.799 278.531 204.973C278.999 205.143 279.408 205.401 279.756 205.745C280.107 206.089 280.381 206.523 280.576 207.045C280.771 207.563 280.869 208.17 280.869 208.866V209.49H273.96V208.083H278.733C278.733 207.757 278.662 207.467 278.52 207.215C278.378 206.963 278.181 206.766 277.929 206.624C277.68 206.478 277.391 206.406 277.06 206.406C276.716 206.406 276.411 206.485 276.144 206.645C275.881 206.801 275.676 207.013 275.526 207.279C275.377 207.542 275.301 207.835 275.297 208.158V209.495C275.297 209.9 275.372 210.25 275.521 210.544C275.674 210.839 275.889 211.066 276.166 211.226C276.443 211.386 276.771 211.466 277.151 211.466C277.403 211.466 277.634 211.43 277.843 211.359C278.053 211.288 278.232 211.182 278.381 211.04C278.531 210.898 278.644 210.724 278.722 210.518L280.821 210.656C280.715 211.161 280.496 211.601 280.166 211.977C279.839 212.35 279.417 212.641 278.898 212.851C278.383 213.057 277.788 213.16 277.114 213.16ZM286.702 204.818V206.523H281.775V204.818H286.702ZM282.893 202.858H285.162V210.486C285.162 210.695 285.194 210.859 285.258 210.976C285.322 211.089 285.411 211.169 285.525 211.216C285.642 211.262 285.777 211.285 285.929 211.285C286.036 211.285 286.142 211.276 286.249 211.258C286.356 211.237 286.437 211.221 286.494 211.21L286.851 212.899C286.737 212.934 286.578 212.975 286.372 213.021C286.166 213.071 285.915 213.101 285.62 213.112C285.074 213.133 284.594 213.06 284.182 212.893C283.774 212.727 283.456 212.467 283.229 212.116C283.002 211.764 282.89 211.32 282.893 210.784V202.858ZM288.18 213V204.818H290.38V206.246H290.465C290.614 205.738 290.865 205.354 291.216 205.095C291.568 204.832 291.973 204.701 292.431 204.701C292.544 204.701 292.667 204.708 292.798 204.722C292.93 204.737 293.045 204.756 293.144 204.781V206.794C293.038 206.762 292.891 206.734 292.702 206.709C292.514 206.684 292.342 206.672 292.186 206.672C291.852 206.672 291.554 206.745 291.291 206.89C291.032 207.032 290.826 207.231 290.673 207.487C290.524 207.743 290.449 208.037 290.449 208.371V213H288.18ZM299.564 209.516V204.818H301.834V213H299.655V211.514H299.57C299.385 211.993 299.078 212.379 298.648 212.67C298.222 212.961 297.702 213.107 297.088 213.107C296.541 213.107 296.059 212.982 295.644 212.734C295.229 212.485 294.904 212.132 294.669 211.674C294.438 211.216 294.321 210.667 294.318 210.028V204.818H296.587V209.623C296.59 210.106 296.72 210.488 296.976 210.768C297.231 211.049 297.574 211.189 298.004 211.189C298.277 211.189 298.533 211.127 298.771 211.002C299.009 210.875 299.2 210.686 299.346 210.438C299.495 210.189 299.568 209.882 299.564 209.516Z" fill="white"/>
<path d="M69.1364 211.213C68.0189 211.213 67.0578 210.976 66.2528 210.503C65.4527 210.025 64.8371 209.362 64.4062 208.514C63.9801 207.667 63.767 206.691 63.767 205.588C63.767 204.471 63.9825 203.491 64.4134 202.648C64.849 201.8 65.4669 201.14 66.267 200.666C67.0672 200.188 68.0189 199.949 69.1222 199.949C70.0739 199.949 70.9072 200.122 71.6222 200.467C72.3371 200.813 72.9029 201.298 73.3196 201.923C73.7363 202.548 73.9659 203.282 74.0085 204.125H71.1534C71.0729 203.58 70.8598 203.143 70.5142 202.811C70.1733 202.475 69.7259 202.307 69.1719 202.307C68.7031 202.307 68.2936 202.435 67.9432 202.69C67.5975 202.941 67.3277 203.308 67.1335 203.791C66.9394 204.274 66.8423 204.859 66.8423 205.545C66.8423 206.241 66.937 206.833 67.1264 207.321C67.3205 207.809 67.5928 208.18 67.9432 208.436C68.2936 208.692 68.7031 208.82 69.1719 208.82C69.5175 208.82 69.8277 208.749 70.1023 208.607C70.3816 208.464 70.6113 208.259 70.7912 207.989C70.9759 207.714 71.0966 207.385 71.1534 207.001H74.0085C73.9612 207.835 73.7339 208.569 73.3267 209.203C72.9242 209.833 72.3679 210.325 71.6577 210.68C70.9474 211.036 70.107 211.213 69.1364 211.213ZM79.0565 211.206C78.3604 211.206 77.7402 211.085 77.1957 210.844C76.6512 210.598 76.2203 210.235 75.9031 209.757C75.5906 209.274 75.4343 208.673 75.4343 207.953C75.4343 207.347 75.5456 206.838 75.7681 206.426C75.9906 206.014 76.2937 205.683 76.6772 205.432C77.0607 205.181 77.4963 204.991 77.984 204.864C78.4764 204.736 78.9925 204.646 79.5323 204.594C80.1668 204.527 80.6781 204.466 81.0664 204.409C81.4547 204.348 81.7364 204.258 81.9116 204.139C82.0868 204.021 82.1744 203.846 82.1744 203.614V203.571C82.1744 203.121 82.0323 202.773 81.7482 202.527C81.4689 202.281 81.0711 202.158 80.555 202.158C80.0105 202.158 79.5773 202.278 79.2553 202.52C78.9334 202.757 78.7203 203.055 78.6161 203.415L75.8178 203.188C75.9599 202.525 76.2392 201.952 76.6559 201.469C77.0726 200.981 77.61 200.607 78.2681 200.347C78.931 200.081 79.698 199.949 80.5692 199.949C81.1753 199.949 81.7553 200.02 82.3093 200.162C82.868 200.304 83.3628 200.524 83.7937 200.822C84.2293 201.121 84.5726 201.504 84.8235 201.973C85.0745 202.437 85.1999 202.993 85.1999 203.642V211H82.3306V209.487H82.2454C82.0702 209.828 81.8358 210.129 81.5423 210.389C81.2487 210.645 80.896 210.846 80.484 210.993C80.0721 211.135 79.5962 211.206 79.0565 211.206ZM79.9229 209.118C80.368 209.118 80.761 209.03 81.1019 208.855C81.4428 208.675 81.7103 208.434 81.9045 208.131C82.0986 207.828 82.1957 207.484 82.1957 207.101V205.943C82.101 206.005 81.9708 206.062 81.805 206.114C81.6441 206.161 81.4618 206.206 81.2582 206.249C81.0546 206.286 80.851 206.322 80.6474 206.355C80.4438 206.384 80.2591 206.41 80.0934 206.433C79.7383 206.485 79.4281 206.568 79.163 206.682C78.8978 206.795 78.6919 206.949 78.5451 207.143C78.3983 207.333 78.3249 207.57 78.3249 207.854C78.3249 208.266 78.4741 208.58 78.7724 208.798C79.0754 209.011 79.4589 209.118 79.9229 209.118ZM87.4904 211V209.196L92.8313 202.584V202.506H87.6751V200.091H96.4748V202.058L91.4606 208.507V208.585H96.6594V211H87.4904ZM103.602 211V200.091H106.535V201.994H106.649C106.848 201.317 107.181 200.806 107.65 200.46C108.119 200.11 108.659 199.935 109.27 199.935C109.421 199.935 109.584 199.944 109.76 199.963C109.935 199.982 110.089 200.008 110.221 200.041V202.726C110.079 202.683 109.883 202.645 109.632 202.612C109.381 202.579 109.151 202.562 108.943 202.562C108.498 202.562 108.1 202.66 107.75 202.854C107.404 203.043 107.129 203.308 106.926 203.649C106.727 203.99 106.627 204.383 106.627 204.828V211H103.602ZM116.249 211.213C115.127 211.213 114.161 210.986 113.352 210.531C112.547 210.072 111.926 209.423 111.491 208.585C111.055 207.742 110.837 206.746 110.837 205.595C110.837 204.473 111.055 203.488 111.491 202.641C111.926 201.793 112.54 201.133 113.33 200.659C114.126 200.186 115.058 199.949 116.129 199.949C116.848 199.949 117.518 200.065 118.138 200.297C118.763 200.524 119.308 200.867 119.772 201.327C120.241 201.786 120.605 202.364 120.866 203.06C121.126 203.751 121.256 204.561 121.256 205.489V206.32H112.045V204.445H118.408C118.408 204.009 118.314 203.623 118.124 203.287C117.935 202.951 117.672 202.688 117.336 202.499C117.004 202.304 116.619 202.207 116.178 202.207C115.719 202.207 115.312 202.314 114.957 202.527C114.606 202.735 114.332 203.017 114.133 203.372C113.934 203.723 113.832 204.113 113.827 204.544V206.327C113.827 206.866 113.927 207.333 114.126 207.726C114.329 208.119 114.616 208.422 114.985 208.635C115.354 208.848 115.792 208.955 116.299 208.955C116.635 208.955 116.943 208.907 117.222 208.812C117.502 208.718 117.741 208.576 117.94 208.386C118.138 208.197 118.29 207.965 118.394 207.69L121.192 207.875C121.05 208.547 120.759 209.134 120.319 209.636C119.883 210.134 119.32 210.522 118.629 210.801C117.942 211.076 117.149 211.213 116.249 211.213ZM128.16 211.213C127.042 211.213 126.081 210.976 125.276 210.503C124.476 210.025 123.861 209.362 123.43 208.514C123.004 207.667 122.79 206.691 122.79 205.588C122.79 204.471 123.006 203.491 123.437 202.648C123.872 201.8 124.49 201.14 125.29 200.666C126.091 200.188 127.042 199.949 128.146 199.949C129.097 199.949 129.931 200.122 130.646 200.467C131.361 200.813 131.926 201.298 132.343 201.923C132.76 202.548 132.989 203.282 133.032 204.125H130.177C130.096 203.58 129.883 203.143 129.538 202.811C129.197 202.475 128.749 202.307 128.195 202.307C127.727 202.307 127.317 202.435 126.967 202.69C126.621 202.941 126.351 203.308 126.157 203.791C125.963 204.274 125.866 204.859 125.866 205.545C125.866 206.241 125.96 206.833 126.15 207.321C126.344 207.809 126.616 208.18 126.967 208.436C127.317 208.692 127.727 208.82 128.195 208.82C128.541 208.82 128.851 208.749 129.126 208.607C129.405 208.464 129.635 208.259 129.815 207.989C129.999 207.714 130.12 207.385 130.177 207.001H133.032C132.985 207.835 132.757 208.569 132.35 209.203C131.948 209.833 131.391 210.325 130.681 210.68C129.971 211.036 129.13 211.213 128.16 211.213ZM141.965 206.355V200.091H144.99V211H142.086V209.018H141.972C141.726 209.658 141.316 210.171 140.743 210.56C140.175 210.948 139.481 211.142 138.662 211.142C137.933 211.142 137.292 210.976 136.738 210.645C136.184 210.313 135.75 209.842 135.438 209.232C135.13 208.621 134.974 207.889 134.969 207.037V200.091H137.995V206.497C137.999 207.141 138.172 207.65 138.513 208.024C138.854 208.398 139.311 208.585 139.884 208.585C140.248 208.585 140.589 208.502 140.907 208.337C141.224 208.166 141.48 207.915 141.674 207.584C141.873 207.252 141.97 206.843 141.965 206.355ZM156.487 203.202L153.717 203.372C153.67 203.135 153.568 202.922 153.412 202.733C153.256 202.539 153.05 202.385 152.794 202.271C152.543 202.153 152.242 202.094 151.892 202.094C151.423 202.094 151.028 202.193 150.706 202.392C150.384 202.586 150.223 202.847 150.223 203.173C150.223 203.434 150.327 203.654 150.536 203.834C150.744 204.014 151.101 204.158 151.608 204.267L153.582 204.665C154.643 204.883 155.434 205.233 155.955 205.716C156.475 206.199 156.736 206.833 156.736 207.619C156.736 208.334 156.525 208.962 156.104 209.501C155.687 210.041 155.114 210.463 154.385 210.766C153.661 211.064 152.825 211.213 151.878 211.213C150.434 211.213 149.283 210.912 148.426 210.311C147.574 209.705 147.074 208.881 146.928 207.839L149.903 207.683C149.993 208.124 150.211 208.46 150.557 208.692C150.902 208.919 151.345 209.033 151.885 209.033C152.415 209.033 152.841 208.931 153.163 208.727C153.49 208.519 153.656 208.251 153.661 207.925C153.656 207.65 153.54 207.425 153.312 207.25C153.085 207.07 152.735 206.933 152.261 206.838L150.372 206.462C149.307 206.249 148.514 205.879 147.993 205.354C147.477 204.828 147.219 204.158 147.219 203.344C147.219 202.643 147.408 202.039 147.787 201.533C148.17 201.026 148.708 200.635 149.399 200.361C150.095 200.086 150.91 199.949 151.842 199.949C153.22 199.949 154.304 200.24 155.095 200.822C155.891 201.405 156.355 202.198 156.487 203.202ZM158.641 211V200.091H161.667V211H158.641ZM160.161 198.685C159.711 198.685 159.325 198.536 159.003 198.237C158.686 197.934 158.527 197.572 158.527 197.151C158.527 196.734 158.686 196.376 159.003 196.078C159.325 195.775 159.711 195.624 160.161 195.624C160.611 195.624 160.994 195.775 161.311 196.078C161.633 196.376 161.794 196.734 161.794 197.151C161.794 197.572 161.633 197.934 161.311 198.237C160.994 198.536 160.611 198.685 160.161 198.685ZM174.261 200.091L170.447 211H167.038L163.224 200.091H166.42L168.685 207.896H168.799L171.058 200.091H174.261Z" fill="white"/>
<ellipse cx="73" cy="270.5" rx="6" ry="5.5" fill="#D9D9D9"/>
<circle cx="72.5" cy="288.5" r="5.5" fill="#D9D9D9"/>
<rect x="63" y="309" width="239" height="61" rx="6" fill="#A82665"/>
<path d="M77.9091 345.17C77.0152 345.17 76.2462 344.981 75.6023 344.602C74.9621 344.22 74.4697 343.689 74.125 343.011C73.7841 342.333 73.6136 341.553 73.6136 340.67C73.6136 339.777 73.786 338.992 74.1307 338.318C74.4792 337.64 74.9735 337.112 75.6136 336.733C76.2538 336.35 77.0152 336.159 77.8977 336.159C78.6591 336.159 79.3258 336.297 79.8977 336.574C80.4697 336.85 80.9223 337.239 81.2557 337.739C81.589 338.239 81.7727 338.826 81.8068 339.5H79.5227C79.4583 339.064 79.2879 338.714 79.0114 338.449C78.7386 338.18 78.3807 338.045 77.9375 338.045C77.5625 338.045 77.2348 338.148 76.9545 338.352C76.678 338.553 76.4621 338.847 76.3068 339.233C76.1515 339.619 76.0739 340.087 76.0739 340.636C76.0739 341.193 76.1496 341.667 76.3011 342.057C76.4564 342.447 76.6742 342.744 76.9545 342.949C77.2348 343.153 77.5625 343.256 77.9375 343.256C78.214 343.256 78.4621 343.199 78.6818 343.085C78.9053 342.972 79.089 342.807 79.233 342.591C79.3807 342.371 79.4773 342.108 79.5227 341.801H81.8068C81.7689 342.468 81.5871 343.055 81.2614 343.562C80.9394 344.066 80.4943 344.46 79.9261 344.744C79.358 345.028 78.6856 345.17 77.9091 345.17ZM85.8452 345.165C85.2884 345.165 84.7921 345.068 84.3565 344.875C83.9209 344.678 83.5762 344.388 83.3224 344.006C83.0724 343.619 82.9474 343.138 82.9474 342.562C82.9474 342.078 83.0365 341.67 83.2145 341.341C83.3925 341.011 83.6349 340.746 83.9418 340.545C84.2486 340.345 84.5971 340.193 84.9872 340.091C85.3812 339.989 85.794 339.917 86.2259 339.875C86.7334 339.822 87.1425 339.773 87.4531 339.727C87.7637 339.678 87.9891 339.606 88.1293 339.511C88.2694 339.417 88.3395 339.277 88.3395 339.091V339.057C88.3395 338.697 88.2259 338.419 87.9986 338.222C87.7751 338.025 87.4569 337.926 87.044 337.926C86.6084 337.926 86.2618 338.023 86.0043 338.216C85.7467 338.405 85.5762 338.644 85.4929 338.932L83.2543 338.75C83.3679 338.22 83.5914 337.761 83.9247 337.375C84.258 336.985 84.688 336.686 85.2145 336.477C85.7448 336.265 86.3584 336.159 87.0554 336.159C87.5402 336.159 88.0043 336.216 88.4474 336.33C88.8944 336.443 89.2902 336.619 89.6349 336.858C89.9834 337.097 90.258 337.403 90.4588 337.778C90.6596 338.15 90.7599 338.595 90.7599 339.114V345H88.4645V343.79H88.3963C88.2562 344.062 88.0687 344.303 87.8338 344.511C87.599 344.716 87.3168 344.877 86.9872 344.994C86.6577 345.108 86.277 345.165 85.8452 345.165ZM86.5384 343.494C86.8944 343.494 87.2088 343.424 87.4815 343.284C87.7543 343.14 87.9683 342.947 88.1236 342.705C88.2789 342.462 88.3565 342.187 88.3565 341.881V340.955C88.2808 341.004 88.1766 341.049 88.044 341.091C87.9152 341.129 87.7694 341.165 87.6065 341.199C87.4437 341.229 87.2808 341.258 87.1179 341.284C86.955 341.307 86.8073 341.328 86.6747 341.347C86.3906 341.388 86.1425 341.455 85.9304 341.545C85.7183 341.636 85.5535 341.759 85.4361 341.915C85.3187 342.066 85.2599 342.256 85.2599 342.483C85.2599 342.812 85.3793 343.064 85.6179 343.239C85.8603 343.409 86.1671 343.494 86.5384 343.494ZM92.5923 345V343.557L96.8651 338.267V338.205H92.7401V336.273H99.7798V337.847L95.7685 343.006V343.068H99.9276V345H92.5923ZM105.482 345V336.273H107.828V337.795H107.919C108.078 337.254 108.345 336.845 108.72 336.568C109.095 336.288 109.527 336.148 110.016 336.148C110.137 336.148 110.268 336.155 110.408 336.17C110.548 336.186 110.671 336.206 110.777 336.233V338.381C110.663 338.347 110.506 338.316 110.305 338.29C110.105 338.263 109.921 338.25 109.754 338.25C109.398 338.25 109.08 338.328 108.8 338.483C108.523 338.634 108.304 338.847 108.141 339.119C107.982 339.392 107.902 339.706 107.902 340.062V345H105.482ZM115.599 345.17C114.702 345.17 113.929 344.989 113.281 344.625C112.637 344.258 112.141 343.739 111.793 343.068C111.444 342.394 111.27 341.597 111.27 340.676C111.27 339.778 111.444 338.991 111.793 338.312C112.141 337.634 112.632 337.106 113.264 336.727C113.901 336.348 114.647 336.159 115.503 336.159C116.079 336.159 116.615 336.252 117.111 336.438C117.611 336.619 118.046 336.894 118.418 337.261C118.793 337.629 119.084 338.091 119.293 338.648C119.501 339.201 119.605 339.848 119.605 340.591V341.256H112.236V339.756H117.327C117.327 339.407 117.251 339.098 117.099 338.83C116.948 338.561 116.738 338.35 116.469 338.199C116.204 338.044 115.895 337.966 115.543 337.966C115.175 337.966 114.849 338.051 114.565 338.222C114.285 338.388 114.065 338.614 113.906 338.898C113.747 339.178 113.666 339.491 113.662 339.835V341.261C113.662 341.693 113.741 342.066 113.901 342.381C114.063 342.695 114.293 342.938 114.588 343.108C114.884 343.278 115.234 343.364 115.639 343.364C115.908 343.364 116.154 343.326 116.378 343.25C116.601 343.174 116.793 343.061 116.952 342.909C117.111 342.758 117.232 342.572 117.315 342.352L119.554 342.5C119.44 343.038 119.207 343.508 118.855 343.909C118.507 344.307 118.056 344.617 117.503 344.841C116.954 345.061 116.319 345.17 115.599 345.17ZM125.128 345.17C124.234 345.17 123.465 344.981 122.821 344.602C122.181 344.22 121.688 343.689 121.344 343.011C121.003 342.333 120.832 341.553 120.832 340.67C120.832 339.777 121.005 338.992 121.349 338.318C121.698 337.64 122.192 337.112 122.832 336.733C123.473 336.35 124.234 336.159 125.116 336.159C125.878 336.159 126.545 336.297 127.116 336.574C127.688 336.85 128.141 337.239 128.474 337.739C128.808 338.239 128.991 338.826 129.026 339.5H126.741C126.677 339.064 126.507 338.714 126.23 338.449C125.957 338.18 125.599 338.045 125.156 338.045C124.781 338.045 124.454 338.148 124.173 338.352C123.897 338.553 123.681 338.847 123.526 339.233C123.37 339.619 123.293 340.087 123.293 340.636C123.293 341.193 123.368 341.667 123.52 342.057C123.675 342.447 123.893 342.744 124.173 342.949C124.454 343.153 124.781 343.256 125.156 343.256C125.433 343.256 125.681 343.199 125.901 343.085C126.124 342.972 126.308 342.807 126.452 342.591C126.599 342.371 126.696 342.108 126.741 341.801H129.026C128.988 342.468 128.806 343.055 128.48 343.562C128.158 344.066 127.713 344.46 127.145 344.744C126.577 345.028 125.904 345.17 125.128 345.17ZM136.172 341.284V336.273H138.592V345H136.268V343.415H136.178C135.981 343.926 135.653 344.337 135.195 344.648C134.74 344.958 134.185 345.114 133.53 345.114C132.946 345.114 132.433 344.981 131.99 344.716C131.547 344.451 131.2 344.074 130.95 343.585C130.704 343.097 130.579 342.511 130.575 341.83V336.273H132.996V341.398C133 341.913 133.138 342.32 133.411 342.619C133.683 342.919 134.049 343.068 134.507 343.068C134.799 343.068 135.071 343.002 135.325 342.869C135.579 342.733 135.784 342.532 135.939 342.267C136.098 342.002 136.176 341.674 136.172 341.284ZM140.528 345V336.273H142.875V337.795H142.966C143.125 337.254 143.392 336.845 143.767 336.568C144.142 336.288 144.574 336.148 145.062 336.148C145.184 336.148 145.314 336.155 145.455 336.17C145.595 336.186 145.718 336.206 145.824 336.233V338.381C145.71 338.347 145.553 338.316 145.352 338.29C145.152 338.263 144.968 338.25 144.801 338.25C144.445 338.25 144.127 338.328 143.847 338.483C143.57 338.634 143.35 338.847 143.188 339.119C143.028 339.392 142.949 339.706 142.949 340.062V345H140.528ZM154.337 338.761L152.121 338.898C152.083 338.708 152.001 338.538 151.876 338.386C151.751 338.231 151.587 338.108 151.382 338.017C151.181 337.922 150.941 337.875 150.661 337.875C150.286 337.875 149.969 337.955 149.712 338.114C149.454 338.269 149.325 338.477 149.325 338.739C149.325 338.947 149.409 339.123 149.575 339.267C149.742 339.411 150.028 339.527 150.433 339.614L152.013 339.932C152.861 340.106 153.494 340.386 153.911 340.773C154.327 341.159 154.536 341.667 154.536 342.295C154.536 342.867 154.367 343.369 154.03 343.801C153.696 344.233 153.238 344.57 152.655 344.812C152.075 345.051 151.407 345.17 150.649 345.17C149.494 345.17 148.573 344.93 147.888 344.449C147.206 343.964 146.806 343.305 146.689 342.472L149.07 342.347C149.142 342.699 149.316 342.968 149.592 343.153C149.869 343.335 150.223 343.426 150.655 343.426C151.079 343.426 151.42 343.345 151.678 343.182C151.939 343.015 152.071 342.801 152.075 342.54C152.071 342.32 151.979 342.14 151.797 342C151.615 341.856 151.335 341.746 150.956 341.67L149.445 341.369C148.592 341.199 147.958 340.903 147.541 340.483C147.128 340.062 146.922 339.527 146.922 338.875C146.922 338.314 147.073 337.831 147.376 337.426C147.683 337.021 148.113 336.708 148.666 336.489C149.223 336.269 149.875 336.159 150.621 336.159C151.723 336.159 152.59 336.392 153.223 336.858C153.859 337.324 154.231 337.958 154.337 338.761ZM156.06 345V336.273H158.48V345H156.06ZM157.276 335.148C156.916 335.148 156.607 335.028 156.349 334.79C156.096 334.547 155.969 334.258 155.969 333.92C155.969 333.587 156.096 333.301 156.349 333.062C156.607 332.82 156.916 332.699 157.276 332.699C157.635 332.699 157.942 332.82 158.196 333.062C158.454 333.301 158.582 333.587 158.582 333.92C158.582 334.258 158.454 334.547 158.196 334.79C157.942 335.028 157.635 335.148 157.276 335.148ZM168.555 336.273L165.504 345H162.777L159.726 336.273H162.283L164.095 342.517H164.186L165.993 336.273H168.555ZM178.19 336.273V338.091H172.804V336.273H178.19ZM174.037 345V335.642C174.037 335.009 174.16 334.485 174.406 334.068C174.656 333.652 174.997 333.339 175.429 333.131C175.861 332.922 176.351 332.818 176.901 332.818C177.272 332.818 177.611 332.847 177.918 332.903C178.228 332.96 178.459 333.011 178.611 333.057L178.179 334.875C178.084 334.845 177.967 334.816 177.827 334.79C177.69 334.763 177.55 334.75 177.406 334.75C177.05 334.75 176.802 334.833 176.662 335C176.522 335.163 176.452 335.392 176.452 335.688V345H174.037ZM179.669 345V336.273H182.089V345H179.669ZM180.885 335.148C180.525 335.148 180.216 335.028 179.959 334.79C179.705 334.547 179.578 334.258 179.578 333.92C179.578 333.587 179.705 333.301 179.959 333.062C180.216 332.82 180.525 332.699 180.885 332.699C181.245 332.699 181.552 332.82 181.805 333.062C182.063 333.301 182.192 333.587 182.192 333.92C182.192 334.258 182.063 334.547 181.805 334.79C181.552 335.028 181.245 335.148 180.885 335.148ZM186.449 339.955V345H184.028V336.273H186.335V337.812H186.438C186.631 337.305 186.955 336.903 187.409 336.608C187.864 336.309 188.415 336.159 189.062 336.159C189.669 336.159 190.197 336.292 190.648 336.557C191.098 336.822 191.449 337.201 191.699 337.693C191.949 338.182 192.074 338.765 192.074 339.443V345H189.653V339.875C189.657 339.341 189.521 338.924 189.244 338.625C188.968 338.322 188.587 338.17 188.102 338.17C187.777 338.17 187.489 338.241 187.239 338.381C186.992 338.521 186.799 338.725 186.659 338.994C186.523 339.259 186.453 339.58 186.449 339.955ZM196.47 345.165C195.913 345.165 195.417 345.068 194.982 344.875C194.546 344.678 194.201 344.388 193.947 344.006C193.697 343.619 193.572 343.138 193.572 342.562C193.572 342.078 193.661 341.67 193.839 341.341C194.018 341.011 194.26 340.746 194.567 340.545C194.874 340.345 195.222 340.193 195.612 340.091C196.006 339.989 196.419 339.917 196.851 339.875C197.358 339.822 197.768 339.773 198.078 339.727C198.389 339.678 198.614 339.606 198.754 339.511C198.894 339.417 198.964 339.277 198.964 339.091V339.057C198.964 338.697 198.851 338.419 198.624 338.222C198.4 338.025 198.082 337.926 197.669 337.926C197.233 337.926 196.887 338.023 196.629 338.216C196.372 338.405 196.201 338.644 196.118 338.932L193.879 338.75C193.993 338.22 194.216 337.761 194.55 337.375C194.883 336.985 195.313 336.686 195.839 336.477C196.37 336.265 196.983 336.159 197.68 336.159C198.165 336.159 198.629 336.216 199.072 336.33C199.519 336.443 199.915 336.619 200.26 336.858C200.608 337.097 200.883 337.403 201.084 337.778C201.285 338.15 201.385 338.595 201.385 339.114V345H199.089V343.79H199.021C198.881 344.062 198.694 344.303 198.459 344.511C198.224 344.716 197.942 344.877 197.612 344.994C197.283 345.108 196.902 345.165 196.47 345.165ZM197.163 343.494C197.519 343.494 197.834 343.424 198.107 343.284C198.379 343.14 198.593 342.947 198.749 342.705C198.904 342.462 198.982 342.187 198.982 341.881V340.955C198.906 341.004 198.802 341.049 198.669 341.091C198.54 341.129 198.394 341.165 198.232 341.199C198.069 341.229 197.906 341.258 197.743 341.284C197.58 341.307 197.432 341.328 197.3 341.347C197.016 341.388 196.768 341.455 196.555 341.545C196.343 341.636 196.179 341.759 196.061 341.915C195.944 342.066 195.885 342.256 195.885 342.483C195.885 342.812 196.004 343.064 196.243 343.239C196.485 343.409 196.792 343.494 197.163 343.494ZM205.683 333.364V345H203.263V333.364H205.683Z" fill="white"/>
<rect x="222" y="325" width="70" height="30" rx="5" fill="#3C8DBC"/>
<path d="M228.664 346.25V338H230.305V339.008H230.379C230.452 338.846 230.557 338.682 230.695 338.516C230.836 338.346 231.018 338.206 231.242 338.094C231.469 337.979 231.75 337.922 232.086 337.922C232.523 337.922 232.927 338.036 233.297 338.266C233.667 338.492 233.962 338.835 234.184 339.293C234.405 339.749 234.516 340.32 234.516 341.008C234.516 341.677 234.408 342.242 234.191 342.703C233.978 343.161 233.686 343.509 233.316 343.746C232.949 343.98 232.538 344.098 232.082 344.098C231.759 344.098 231.484 344.044 231.258 343.937C231.034 343.831 230.85 343.697 230.707 343.535C230.564 343.371 230.454 343.206 230.379 343.039H230.328V346.25H228.664ZM230.293 341C230.293 341.357 230.342 341.668 230.441 341.934C230.54 342.199 230.684 342.406 230.871 342.555C231.059 342.701 231.286 342.773 231.555 342.773C231.826 342.773 232.055 342.699 232.242 342.551C232.43 342.4 232.572 342.191 232.668 341.926C232.767 341.658 232.816 341.349 232.816 341C232.816 340.654 232.768 340.349 232.672 340.086C232.576 339.823 232.434 339.617 232.246 339.469C232.059 339.32 231.828 339.246 231.555 339.246C231.284 339.246 231.055 339.318 230.867 339.461C230.682 339.604 230.54 339.807 230.441 340.07C230.342 340.333 230.293 340.643 230.293 341ZM237.336 344.113C236.953 344.113 236.612 344.047 236.313 343.914C236.013 343.779 235.776 343.579 235.602 343.316C235.43 343.051 235.344 342.72 235.344 342.324C235.344 341.991 235.405 341.711 235.527 341.484C235.65 341.258 235.816 341.076 236.027 340.937C236.238 340.799 236.478 340.695 236.746 340.625C237.017 340.555 237.301 340.505 237.598 340.477C237.947 340.44 238.228 340.406 238.441 340.375C238.655 340.341 238.81 340.292 238.906 340.227C239.003 340.161 239.051 340.065 239.051 339.937V339.914C239.051 339.667 238.973 339.475 238.816 339.34C238.663 339.204 238.444 339.137 238.16 339.137C237.861 339.137 237.622 339.203 237.445 339.336C237.268 339.466 237.151 339.63 237.094 339.828L235.555 339.703C235.633 339.339 235.786 339.023 236.016 338.758C236.245 338.49 236.54 338.284 236.902 338.141C237.267 337.995 237.689 337.922 238.168 337.922C238.501 337.922 238.82 337.961 239.125 338.039C239.432 338.117 239.704 338.238 239.941 338.402C240.181 338.566 240.37 338.777 240.508 339.035C240.646 339.29 240.715 339.596 240.715 339.953V344H239.137V343.168H239.09C238.993 343.355 238.865 343.521 238.703 343.664C238.542 343.805 238.348 343.915 238.121 343.996C237.895 344.074 237.633 344.113 237.336 344.113ZM237.813 342.965C238.057 342.965 238.273 342.917 238.461 342.82C238.648 342.721 238.796 342.589 238.902 342.422C239.009 342.255 239.063 342.066 239.063 341.855V341.219C239.01 341.253 238.939 341.284 238.848 341.312C238.759 341.339 238.659 341.363 238.547 341.387C238.435 341.408 238.323 341.427 238.211 341.445C238.099 341.461 237.997 341.475 237.906 341.488C237.711 341.517 237.54 341.562 237.395 341.625C237.249 341.687 237.135 341.772 237.055 341.879C236.974 341.983 236.934 342.113 236.934 342.27C236.934 342.496 237.016 342.669 237.18 342.789C237.346 342.906 237.557 342.965 237.813 342.965ZM242.006 344V338H243.619V339.047H243.682C243.791 338.674 243.975 338.393 244.232 338.203C244.49 338.01 244.787 337.914 245.123 337.914C245.206 337.914 245.296 337.919 245.393 337.93C245.489 337.94 245.574 337.954 245.646 337.973V339.449C245.568 339.426 245.46 339.405 245.322 339.387C245.184 339.368 245.058 339.359 244.943 339.359C244.699 339.359 244.48 339.413 244.287 339.52C244.097 339.624 243.946 339.77 243.834 339.957C243.725 340.145 243.67 340.361 243.67 340.605V344H242.006ZM248.046 344.113C247.663 344.113 247.322 344.047 247.022 343.914C246.723 343.779 246.486 343.579 246.312 343.316C246.14 343.051 246.054 342.72 246.054 342.324C246.054 341.991 246.115 341.711 246.237 341.484C246.36 341.258 246.526 341.076 246.737 340.937C246.948 340.799 247.188 340.695 247.456 340.625C247.727 340.555 248.011 340.505 248.308 340.477C248.657 340.44 248.938 340.406 249.151 340.375C249.365 340.341 249.52 340.292 249.616 340.227C249.713 340.161 249.761 340.065 249.761 339.937V339.914C249.761 339.667 249.683 339.475 249.526 339.34C249.373 339.204 249.154 339.137 248.87 339.137C248.571 339.137 248.332 339.203 248.155 339.336C247.978 339.466 247.861 339.63 247.804 339.828L246.265 339.703C246.343 339.339 246.496 339.023 246.726 338.758C246.955 338.49 247.25 338.284 247.612 338.141C247.977 337.995 248.399 337.922 248.878 337.922C249.211 337.922 249.53 337.961 249.835 338.039C250.142 338.117 250.414 338.238 250.651 338.402C250.891 338.566 251.08 338.777 251.218 339.035C251.356 339.29 251.425 339.596 251.425 339.953V344H249.847V343.168H249.8C249.703 343.355 249.575 343.521 249.413 343.664C249.252 343.805 249.058 343.915 248.831 343.996C248.604 344.074 248.343 344.113 248.046 344.113ZM248.522 342.965C248.767 342.965 248.983 342.917 249.171 342.82C249.358 342.721 249.506 342.589 249.612 342.422C249.719 342.255 249.772 342.066 249.772 341.855V341.219C249.72 341.253 249.649 341.284 249.558 341.312C249.469 341.339 249.369 341.363 249.257 341.387C249.145 341.408 249.033 341.427 248.921 341.445C248.809 341.461 248.707 341.475 248.616 341.488C248.421 341.517 248.25 341.562 248.104 341.625C247.959 341.687 247.845 341.772 247.765 341.879C247.684 341.983 247.644 342.113 247.644 342.27C247.644 342.496 247.726 342.669 247.89 342.789C248.056 342.906 248.267 342.965 248.522 342.965ZM252.716 344V338H254.302V339.059H254.372C254.497 338.707 254.705 338.43 254.997 338.227C255.289 338.023 255.638 337.922 256.044 337.922C256.455 337.922 256.806 338.025 257.095 338.23C257.384 338.434 257.576 338.71 257.673 339.059H257.735C257.858 338.715 258.079 338.44 258.399 338.234C258.722 338.026 259.104 337.922 259.544 337.922C260.104 337.922 260.558 338.1 260.907 338.457C261.259 338.811 261.435 339.314 261.435 339.965V344H259.774V340.293C259.774 339.96 259.686 339.71 259.509 339.543C259.332 339.376 259.11 339.293 258.845 339.293C258.543 339.293 258.307 339.389 258.138 339.582C257.968 339.772 257.884 340.023 257.884 340.336V344H256.271V340.258C256.271 339.964 256.186 339.729 256.017 339.555C255.85 339.38 255.63 339.293 255.356 339.293C255.172 339.293 255.005 339.34 254.856 339.434C254.711 339.525 254.595 339.654 254.509 339.82C254.423 339.984 254.38 340.177 254.38 340.398V344H252.716ZM265.483 344.117C264.866 344.117 264.335 343.992 263.89 343.742C263.447 343.49 263.106 343.133 262.866 342.672C262.627 342.208 262.507 341.66 262.507 341.027C262.507 340.41 262.627 339.868 262.866 339.402C263.106 338.936 263.443 338.573 263.878 338.312C264.315 338.052 264.828 337.922 265.417 337.922C265.813 337.922 266.181 337.986 266.522 338.113C266.866 338.238 267.166 338.427 267.421 338.68C267.679 338.932 267.879 339.25 268.022 339.633C268.166 340.013 268.237 340.458 268.237 340.969V341.426H263.171V340.395H266.671C266.671 340.155 266.619 339.943 266.515 339.758C266.41 339.573 266.266 339.428 266.081 339.324C265.899 339.217 265.687 339.164 265.444 339.164C265.192 339.164 264.968 339.223 264.772 339.34C264.58 339.454 264.429 339.609 264.319 339.805C264.21 339.997 264.154 340.212 264.151 340.449V341.43C264.151 341.727 264.206 341.983 264.315 342.199C264.427 342.415 264.585 342.582 264.788 342.699C264.991 342.816 265.232 342.875 265.511 342.875C265.696 342.875 265.865 342.849 266.019 342.797C266.172 342.745 266.304 342.667 266.413 342.562C266.522 342.458 266.606 342.331 266.663 342.18L268.202 342.281C268.124 342.651 267.964 342.974 267.722 343.25C267.482 343.523 267.172 343.737 266.792 343.891C266.414 344.042 265.978 344.117 265.483 344.117ZM272.515 338V339.25H268.901V338H272.515ZM269.722 336.562H271.386V342.156C271.386 342.31 271.409 342.43 271.456 342.516C271.503 342.599 271.568 342.658 271.651 342.691C271.737 342.725 271.836 342.742 271.948 342.742C272.026 342.742 272.104 342.736 272.183 342.723C272.261 342.707 272.321 342.695 272.362 342.687L272.624 343.926C272.541 343.952 272.424 343.982 272.272 344.016C272.121 344.052 271.938 344.074 271.722 344.082C271.321 344.098 270.969 344.044 270.667 343.922C270.368 343.799 270.134 343.609 269.968 343.352C269.801 343.094 269.719 342.768 269.722 342.375V336.562ZM273.599 344V338H275.212V339.047H275.274C275.384 338.674 275.567 338.393 275.825 338.203C276.083 338.01 276.38 337.914 276.716 337.914C276.799 337.914 276.889 337.919 276.985 337.93C277.082 337.94 277.166 337.954 277.239 337.973V339.449C277.161 339.426 277.053 339.405 276.915 339.387C276.777 339.368 276.651 339.359 276.536 339.359C276.291 339.359 276.073 339.413 275.88 339.52C275.69 339.624 275.539 339.77 275.427 339.957C275.317 340.145 275.263 340.361 275.263 340.605V344H273.599ZM281.947 341.445V338H283.611V344H282.014V342.91H281.951C281.816 343.262 281.59 343.544 281.275 343.758C280.963 343.971 280.581 344.078 280.131 344.078C279.73 344.078 279.377 343.987 279.072 343.805C278.768 343.622 278.529 343.363 278.357 343.027C278.188 342.691 278.102 342.289 278.1 341.82V338H279.764V341.523C279.766 341.878 279.861 342.158 280.049 342.363C280.236 342.569 280.488 342.672 280.803 342.672C281.003 342.672 281.191 342.626 281.365 342.535C281.54 342.441 281.68 342.303 281.787 342.121C281.896 341.939 281.95 341.714 281.947 341.445Z" fill="white"/>
<path d="M58.8573 346.993C52.4494 340.585 46.473 334.759 40.9994 327.381C30.5227 313.26 27.8611 296.223 27.8611 278.942C27.8611 270.97 27.7924 262.996 27.8611 255.025C27.925 247.613 29.9655 238.049 33.8562 231.682C35.4603 229.057 37.3755 225.194 40.4892 224.156" stroke="white" stroke-width="3" stroke-linecap="round"/>
<path d="M54.8392 206.362C51.0901 206.362 47.0354 203.258 43.6462 201.77C36.7596 198.747 30.4799 195.597 25.1186 190.162C14.4833 179.382 11.4979 162.616 15.233 148.069C16.9016 141.57 22.9405 132.512 29.0091 129.318C32.5015 127.48 37.7934 127.724 41.6371 127.724" stroke="white" stroke-width="3" stroke-linecap="round"/>
<path d="M46.8032 114.522C33.0247 114.522 19.1181 110.298 9.62053 99.5977C-1.9113 86.6061 1.30111 64.0124 9.04653 50.1059C10.9526 46.6836 13.3893 41.9693 17.529 41.0494C20.9754 40.2835 24.4407 39.6627 27.8611 38.8809C31.3707 38.0787 35.7443 38.7534 39.3411 38.7534" stroke="white" stroke-width="3" stroke-linecap="round"/>
</svg>
